<mxfile host="app.diagrams.net" modified="2023-09-03T12:52:22.086Z" agent="Mozilla/5.0 (Windows NT 10.0; Win64; x64) AppleWebKit/537.36 (KHTML, like Gecko) Chrome/116.0.0.0 Safari/537.36" etag="c-1H0oCAeOcAw9vymSIx" version="21.7.2" type="device">
  <diagram name="Page-1" id="oxK1FpHOTDMpUzDTjFTG">
    <mxGraphModel dx="2497" dy="861" grid="1" gridSize="10" guides="1" tooltips="1" connect="1" arrows="1" fold="1" page="1" pageScale="1" pageWidth="850" pageHeight="1100" math="0" shadow="0">
      <root>
        <mxCell id="0" />
        <mxCell id="1" parent="0" />
        <mxCell id="oYCZfajTv22bk5wUYPz_-7" value="" style="shape=table;startSize=0;container=1;collapsible=0;childLayout=tableLayout;fillColor=#f5f5f5;fontColor=#333333;strokeColor=#666666;" parent="1" vertex="1">
          <mxGeometry x="-810" y="50" width="1630" height="40" as="geometry" />
        </mxCell>
        <mxCell id="oYCZfajTv22bk5wUYPz_-8" value="" style="shape=tableRow;horizontal=0;startSize=0;swimlaneHead=0;swimlaneBody=0;strokeColor=inherit;top=0;left=0;bottom=0;right=0;collapsible=0;dropTarget=0;fillColor=none;points=[[0,0.5],[1,0.5]];portConstraint=eastwest;" parent="oYCZfajTv22bk5wUYPz_-7" vertex="1">
          <mxGeometry width="1630" height="40" as="geometry" />
        </mxCell>
        <mxCell id="oYCZfajTv22bk5wUYPz_-9" value="&lt;u&gt;client_code&lt;/u&gt;" style="shape=partialRectangle;html=1;whiteSpace=wrap;connectable=0;strokeColor=inherit;overflow=hidden;fillColor=none;top=0;left=0;bottom=0;right=0;pointerEvents=1;" parent="oYCZfajTv22bk5wUYPz_-8" vertex="1">
          <mxGeometry width="80" height="40" as="geometry">
            <mxRectangle width="80" height="40" as="alternateBounds" />
          </mxGeometry>
        </mxCell>
        <mxCell id="oYCZfajTv22bk5wUYPz_-10" value="name" style="shape=partialRectangle;html=1;whiteSpace=wrap;connectable=0;strokeColor=inherit;overflow=hidden;fillColor=none;top=0;left=0;bottom=0;right=0;pointerEvents=1;" parent="oYCZfajTv22bk5wUYPz_-8" vertex="1">
          <mxGeometry x="80" width="50" height="40" as="geometry">
            <mxRectangle width="50" height="40" as="alternateBounds" />
          </mxGeometry>
        </mxCell>
        <mxCell id="oYCZfajTv22bk5wUYPz_-11" value="id_create_date" style="shape=partialRectangle;html=1;whiteSpace=wrap;connectable=0;strokeColor=inherit;overflow=hidden;fillColor=none;top=0;left=0;bottom=0;right=0;pointerEvents=1;" parent="oYCZfajTv22bk5wUYPz_-8" vertex="1">
          <mxGeometry x="130" width="100" height="40" as="geometry">
            <mxRectangle width="100" height="40" as="alternateBounds" />
          </mxGeometry>
        </mxCell>
        <mxCell id="oYCZfajTv22bk5wUYPz_-12" value="email" style="shape=partialRectangle;html=1;whiteSpace=wrap;connectable=0;strokeColor=inherit;overflow=hidden;fillColor=none;top=0;left=0;bottom=0;right=0;pointerEvents=1;" parent="oYCZfajTv22bk5wUYPz_-8" vertex="1">
          <mxGeometry x="230" width="50" height="40" as="geometry">
            <mxRectangle width="50" height="40" as="alternateBounds" />
          </mxGeometry>
        </mxCell>
        <mxCell id="oYCZfajTv22bk5wUYPz_-13" value="father_name" style="shape=partialRectangle;html=1;whiteSpace=wrap;connectable=0;strokeColor=inherit;overflow=hidden;fillColor=none;top=0;left=0;bottom=0;right=0;pointerEvents=1;" parent="oYCZfajTv22bk5wUYPz_-8" vertex="1">
          <mxGeometry x="280" width="80" height="40" as="geometry">
            <mxRectangle width="80" height="40" as="alternateBounds" />
          </mxGeometry>
        </mxCell>
        <mxCell id="oYCZfajTv22bk5wUYPz_-14" value="mother_name" style="shape=partialRectangle;html=1;whiteSpace=wrap;connectable=0;strokeColor=inherit;overflow=hidden;fillColor=none;top=0;left=0;bottom=0;right=0;pointerEvents=1;" parent="oYCZfajTv22bk5wUYPz_-8" vertex="1">
          <mxGeometry x="360" width="90" height="40" as="geometry">
            <mxRectangle width="90" height="40" as="alternateBounds" />
          </mxGeometry>
        </mxCell>
        <mxCell id="oYCZfajTv22bk5wUYPz_-15" value="present_thana" style="shape=partialRectangle;html=1;whiteSpace=wrap;connectable=0;strokeColor=inherit;overflow=hidden;fillColor=none;top=0;left=0;bottom=0;right=0;pointerEvents=1;" parent="oYCZfajTv22bk5wUYPz_-8" vertex="1">
          <mxGeometry x="450" width="90" height="40" as="geometry">
            <mxRectangle width="90" height="40" as="alternateBounds" />
          </mxGeometry>
        </mxCell>
        <mxCell id="3AwoEfTx26ynnq3Ft3Jd-2" value="present_post" style="shape=partialRectangle;html=1;whiteSpace=wrap;connectable=0;strokeColor=inherit;overflow=hidden;fillColor=none;top=0;left=0;bottom=0;right=0;pointerEvents=1;" parent="oYCZfajTv22bk5wUYPz_-8" vertex="1">
          <mxGeometry x="540" width="80" height="40" as="geometry">
            <mxRectangle width="80" height="40" as="alternateBounds" />
          </mxGeometry>
        </mxCell>
        <mxCell id="3AwoEfTx26ynnq3Ft3Jd-4" value="present_division" style="shape=partialRectangle;html=1;whiteSpace=wrap;connectable=0;strokeColor=inherit;overflow=hidden;fillColor=none;top=0;left=0;bottom=0;right=0;pointerEvents=1;" parent="oYCZfajTv22bk5wUYPz_-8" vertex="1">
          <mxGeometry x="620" width="100" height="40" as="geometry">
            <mxRectangle width="100" height="40" as="alternateBounds" />
          </mxGeometry>
        </mxCell>
        <mxCell id="3AwoEfTx26ynnq3Ft3Jd-5" value="present_country" style="shape=partialRectangle;html=1;whiteSpace=wrap;connectable=0;strokeColor=inherit;overflow=hidden;fillColor=none;top=0;left=0;bottom=0;right=0;pointerEvents=1;" parent="oYCZfajTv22bk5wUYPz_-8" vertex="1">
          <mxGeometry x="720" width="100" height="40" as="geometry">
            <mxRectangle width="100" height="40" as="alternateBounds" />
          </mxGeometry>
        </mxCell>
        <mxCell id="oYCZfajTv22bk5wUYPz_-16" value="permanent_thana" style="shape=partialRectangle;html=1;whiteSpace=wrap;connectable=0;strokeColor=inherit;overflow=hidden;fillColor=none;top=0;left=0;bottom=0;right=0;pointerEvents=1;" parent="oYCZfajTv22bk5wUYPz_-8" vertex="1">
          <mxGeometry x="820" width="110" height="40" as="geometry">
            <mxRectangle width="110" height="40" as="alternateBounds" />
          </mxGeometry>
        </mxCell>
        <mxCell id="3AwoEfTx26ynnq3Ft3Jd-8" value="permanent_post" style="shape=partialRectangle;html=1;whiteSpace=wrap;connectable=0;strokeColor=inherit;overflow=hidden;fillColor=none;top=0;left=0;bottom=0;right=0;pointerEvents=1;" parent="oYCZfajTv22bk5wUYPz_-8" vertex="1">
          <mxGeometry x="930" width="100" height="40" as="geometry">
            <mxRectangle width="100" height="40" as="alternateBounds" />
          </mxGeometry>
        </mxCell>
        <mxCell id="3AwoEfTx26ynnq3Ft3Jd-7" value="permanent_division" style="shape=partialRectangle;html=1;whiteSpace=wrap;connectable=0;strokeColor=inherit;overflow=hidden;fillColor=none;top=0;left=0;bottom=0;right=0;pointerEvents=1;" parent="oYCZfajTv22bk5wUYPz_-8" vertex="1">
          <mxGeometry x="1030" width="120" height="40" as="geometry">
            <mxRectangle width="120" height="40" as="alternateBounds" />
          </mxGeometry>
        </mxCell>
        <mxCell id="3AwoEfTx26ynnq3Ft3Jd-6" value="permanent_country" style="shape=partialRectangle;html=1;whiteSpace=wrap;connectable=0;strokeColor=inherit;overflow=hidden;fillColor=none;top=0;left=0;bottom=0;right=0;pointerEvents=1;" parent="oYCZfajTv22bk5wUYPz_-8" vertex="1">
          <mxGeometry x="1150" width="120" height="40" as="geometry">
            <mxRectangle width="120" height="40" as="alternateBounds" />
          </mxGeometry>
        </mxCell>
        <mxCell id="oYCZfajTv22bk5wUYPz_-17" value="mobile" style="shape=partialRectangle;html=1;whiteSpace=wrap;connectable=0;strokeColor=inherit;overflow=hidden;fillColor=none;top=0;left=0;bottom=0;right=0;pointerEvents=1;" parent="oYCZfajTv22bk5wUYPz_-8" vertex="1">
          <mxGeometry x="1270" width="50" height="40" as="geometry">
            <mxRectangle width="50" height="40" as="alternateBounds" />
          </mxGeometry>
        </mxCell>
        <mxCell id="oYCZfajTv22bk5wUYPz_-18" value="tel" style="shape=partialRectangle;html=1;whiteSpace=wrap;connectable=0;strokeColor=inherit;overflow=hidden;fillColor=none;top=0;left=0;bottom=0;right=0;pointerEvents=1;" parent="oYCZfajTv22bk5wUYPz_-8" vertex="1">
          <mxGeometry x="1320" width="30" height="40" as="geometry">
            <mxRectangle width="30" height="40" as="alternateBounds" />
          </mxGeometry>
        </mxCell>
        <mxCell id="oYCZfajTv22bk5wUYPz_-19" value="dob" style="shape=partialRectangle;html=1;whiteSpace=wrap;connectable=0;strokeColor=inherit;overflow=hidden;fillColor=none;top=0;left=0;bottom=0;right=0;pointerEvents=1;" parent="oYCZfajTv22bk5wUYPz_-8" vertex="1">
          <mxGeometry x="1350" width="40" height="40" as="geometry">
            <mxRectangle width="40" height="40" as="alternateBounds" />
          </mxGeometry>
        </mxCell>
        <mxCell id="oYCZfajTv22bk5wUYPz_-20" value="gender" style="shape=partialRectangle;html=1;whiteSpace=wrap;connectable=0;strokeColor=inherit;overflow=hidden;fillColor=none;top=0;left=0;bottom=0;right=0;pointerEvents=1;" parent="oYCZfajTv22bk5wUYPz_-8" vertex="1">
          <mxGeometry x="1390" width="50" height="40" as="geometry">
            <mxRectangle width="50" height="40" as="alternateBounds" />
          </mxGeometry>
        </mxCell>
        <mxCell id="oYCZfajTv22bk5wUYPz_-21" value="tin" style="shape=partialRectangle;html=1;whiteSpace=wrap;connectable=0;strokeColor=inherit;overflow=hidden;fillColor=none;top=0;left=0;bottom=0;right=0;pointerEvents=1;" parent="oYCZfajTv22bk5wUYPz_-8" vertex="1">
          <mxGeometry x="1440" width="30" height="40" as="geometry">
            <mxRectangle width="30" height="40" as="alternateBounds" />
          </mxGeometry>
        </mxCell>
        <mxCell id="oYCZfajTv22bk5wUYPz_-22" value="nationality" style="shape=partialRectangle;html=1;whiteSpace=wrap;connectable=0;strokeColor=inherit;overflow=hidden;fillColor=none;top=0;left=0;bottom=0;right=0;pointerEvents=1;" parent="oYCZfajTv22bk5wUYPz_-8" vertex="1">
          <mxGeometry x="1470" width="70" height="40" as="geometry">
            <mxRectangle width="70" height="40" as="alternateBounds" />
          </mxGeometry>
        </mxCell>
        <mxCell id="oYCZfajTv22bk5wUYPz_-23" value="occupation" style="shape=partialRectangle;html=1;whiteSpace=wrap;connectable=0;strokeColor=inherit;overflow=hidden;fillColor=none;top=0;left=0;bottom=0;right=0;pointerEvents=1;" parent="oYCZfajTv22bk5wUYPz_-8" vertex="1">
          <mxGeometry x="1540" width="90" height="40" as="geometry">
            <mxRectangle width="90" height="40" as="alternateBounds" />
          </mxGeometry>
        </mxCell>
        <mxCell id="oYCZfajTv22bk5wUYPz_-28" value="CLIENT" style="text;html=1;align=center;verticalAlign=middle;resizable=0;points=[];autosize=1;strokeColor=none;fillColor=none;" parent="1" vertex="1">
          <mxGeometry x="-810" y="20" width="70" height="30" as="geometry" />
        </mxCell>
        <mxCell id="CaH6MLlr3w6qB_pdMVhU-39" value="" style="shape=table;startSize=0;container=1;collapsible=0;childLayout=tableLayout;fillColor=#f5f5f5;fontColor=#333333;strokeColor=#666666;" parent="1" vertex="1">
          <mxGeometry x="-800" y="155" width="1260" height="40" as="geometry" />
        </mxCell>
        <mxCell id="CaH6MLlr3w6qB_pdMVhU-40" value="" style="shape=tableRow;horizontal=0;startSize=0;swimlaneHead=0;swimlaneBody=0;strokeColor=inherit;top=0;left=0;bottom=0;right=0;collapsible=0;dropTarget=0;fillColor=none;points=[[0,0.5],[1,0.5]];portConstraint=eastwest;" parent="CaH6MLlr3w6qB_pdMVhU-39" vertex="1">
          <mxGeometry width="1260" height="40" as="geometry" />
        </mxCell>
        <mxCell id="CaH6MLlr3w6qB_pdMVhU-41" value="&lt;u&gt;client_code&lt;/u&gt;" style="shape=partialRectangle;html=1;whiteSpace=wrap;connectable=0;strokeColor=inherit;overflow=hidden;fillColor=none;top=0;left=0;bottom=0;right=0;pointerEvents=1;" parent="CaH6MLlr3w6qB_pdMVhU-40" vertex="1">
          <mxGeometry width="90" height="40" as="geometry">
            <mxRectangle width="90" height="40" as="alternateBounds" />
          </mxGeometry>
        </mxCell>
        <mxCell id="CaH6MLlr3w6qB_pdMVhU-42" value="name" style="shape=partialRectangle;html=1;whiteSpace=wrap;connectable=0;strokeColor=inherit;overflow=hidden;fillColor=none;top=0;left=0;bottom=0;right=0;pointerEvents=1;" parent="CaH6MLlr3w6qB_pdMVhU-40" vertex="1">
          <mxGeometry x="90" width="50" height="40" as="geometry">
            <mxRectangle width="50" height="40" as="alternateBounds" />
          </mxGeometry>
        </mxCell>
        <mxCell id="CaH6MLlr3w6qB_pdMVhU-43" value="id_create_date" style="shape=partialRectangle;html=1;whiteSpace=wrap;connectable=0;strokeColor=inherit;overflow=hidden;fillColor=none;top=0;left=0;bottom=0;right=0;pointerEvents=1;" parent="CaH6MLlr3w6qB_pdMVhU-40" vertex="1">
          <mxGeometry x="140" width="90" height="40" as="geometry">
            <mxRectangle width="90" height="40" as="alternateBounds" />
          </mxGeometry>
        </mxCell>
        <mxCell id="CaH6MLlr3w6qB_pdMVhU-44" value="email" style="shape=partialRectangle;html=1;whiteSpace=wrap;connectable=0;strokeColor=inherit;overflow=hidden;fillColor=none;top=0;left=0;bottom=0;right=0;pointerEvents=1;" parent="CaH6MLlr3w6qB_pdMVhU-40" vertex="1">
          <mxGeometry x="230" width="50" height="40" as="geometry">
            <mxRectangle width="50" height="40" as="alternateBounds" />
          </mxGeometry>
        </mxCell>
        <mxCell id="CaH6MLlr3w6qB_pdMVhU-45" value="father_name" style="shape=partialRectangle;html=1;whiteSpace=wrap;connectable=0;strokeColor=inherit;overflow=hidden;fillColor=none;top=0;left=0;bottom=0;right=0;pointerEvents=1;" parent="CaH6MLlr3w6qB_pdMVhU-40" vertex="1">
          <mxGeometry x="280" width="90" height="40" as="geometry">
            <mxRectangle width="90" height="40" as="alternateBounds" />
          </mxGeometry>
        </mxCell>
        <mxCell id="CaH6MLlr3w6qB_pdMVhU-46" value="mother_name" style="shape=partialRectangle;html=1;whiteSpace=wrap;connectable=0;strokeColor=inherit;overflow=hidden;fillColor=none;top=0;left=0;bottom=0;right=0;pointerEvents=1;" parent="CaH6MLlr3w6qB_pdMVhU-40" vertex="1">
          <mxGeometry x="370" width="100" height="40" as="geometry">
            <mxRectangle width="100" height="40" as="alternateBounds" />
          </mxGeometry>
        </mxCell>
        <mxCell id="CaH6MLlr3w6qB_pdMVhU-47" value="present_address" style="shape=partialRectangle;html=1;whiteSpace=wrap;connectable=0;strokeColor=inherit;overflow=hidden;fillColor=none;top=0;left=0;bottom=0;right=0;pointerEvents=1;" parent="CaH6MLlr3w6qB_pdMVhU-40" vertex="1">
          <mxGeometry x="470" width="120" height="40" as="geometry">
            <mxRectangle width="120" height="40" as="alternateBounds" />
          </mxGeometry>
        </mxCell>
        <mxCell id="CaH6MLlr3w6qB_pdMVhU-48" value="permanent_address" style="shape=partialRectangle;html=1;whiteSpace=wrap;connectable=0;strokeColor=inherit;overflow=hidden;fillColor=none;top=0;left=0;bottom=0;right=0;pointerEvents=1;" parent="CaH6MLlr3w6qB_pdMVhU-40" vertex="1">
          <mxGeometry x="590" width="120" height="40" as="geometry">
            <mxRectangle width="120" height="40" as="alternateBounds" />
          </mxGeometry>
        </mxCell>
        <mxCell id="CaH6MLlr3w6qB_pdMVhU-49" value="mobile" style="shape=partialRectangle;html=1;whiteSpace=wrap;connectable=0;strokeColor=inherit;overflow=hidden;fillColor=none;top=0;left=0;bottom=0;right=0;pointerEvents=1;" parent="CaH6MLlr3w6qB_pdMVhU-40" vertex="1">
          <mxGeometry x="710" width="50" height="40" as="geometry">
            <mxRectangle width="50" height="40" as="alternateBounds" />
          </mxGeometry>
        </mxCell>
        <mxCell id="CaH6MLlr3w6qB_pdMVhU-50" value="tel" style="shape=partialRectangle;html=1;whiteSpace=wrap;connectable=0;strokeColor=inherit;overflow=hidden;fillColor=none;top=0;left=0;bottom=0;right=0;pointerEvents=1;" parent="CaH6MLlr3w6qB_pdMVhU-40" vertex="1">
          <mxGeometry x="760" width="40" height="40" as="geometry">
            <mxRectangle width="40" height="40" as="alternateBounds" />
          </mxGeometry>
        </mxCell>
        <mxCell id="CaH6MLlr3w6qB_pdMVhU-51" value="dob" style="shape=partialRectangle;html=1;whiteSpace=wrap;connectable=0;strokeColor=inherit;overflow=hidden;fillColor=none;top=0;left=0;bottom=0;right=0;pointerEvents=1;" parent="CaH6MLlr3w6qB_pdMVhU-40" vertex="1">
          <mxGeometry x="800" width="40" height="40" as="geometry">
            <mxRectangle width="40" height="40" as="alternateBounds" />
          </mxGeometry>
        </mxCell>
        <mxCell id="CaH6MLlr3w6qB_pdMVhU-52" value="gender" style="shape=partialRectangle;html=1;whiteSpace=wrap;connectable=0;strokeColor=inherit;overflow=hidden;fillColor=none;top=0;left=0;bottom=0;right=0;pointerEvents=1;" parent="CaH6MLlr3w6qB_pdMVhU-40" vertex="1">
          <mxGeometry x="840" width="50" height="40" as="geometry">
            <mxRectangle width="50" height="40" as="alternateBounds" />
          </mxGeometry>
        </mxCell>
        <mxCell id="CaH6MLlr3w6qB_pdMVhU-53" value="tin" style="shape=partialRectangle;html=1;whiteSpace=wrap;connectable=0;strokeColor=inherit;overflow=hidden;fillColor=none;top=0;left=0;bottom=0;right=0;pointerEvents=1;" parent="CaH6MLlr3w6qB_pdMVhU-40" vertex="1">
          <mxGeometry x="890" width="40" height="40" as="geometry">
            <mxRectangle width="40" height="40" as="alternateBounds" />
          </mxGeometry>
        </mxCell>
        <mxCell id="CaH6MLlr3w6qB_pdMVhU-54" value="nationality" style="shape=partialRectangle;html=1;whiteSpace=wrap;connectable=0;strokeColor=inherit;overflow=hidden;fillColor=none;top=0;left=0;bottom=0;right=0;pointerEvents=1;" parent="CaH6MLlr3w6qB_pdMVhU-40" vertex="1">
          <mxGeometry x="930" width="70" height="40" as="geometry">
            <mxRectangle width="70" height="40" as="alternateBounds" />
          </mxGeometry>
        </mxCell>
        <mxCell id="CaH6MLlr3w6qB_pdMVhU-55" value="occupation" style="shape=partialRectangle;html=1;whiteSpace=wrap;connectable=0;strokeColor=inherit;overflow=hidden;fillColor=none;top=0;left=0;bottom=0;right=0;pointerEvents=1;" parent="CaH6MLlr3w6qB_pdMVhU-40" vertex="1">
          <mxGeometry x="1000" width="70" height="40" as="geometry">
            <mxRectangle width="70" height="40" as="alternateBounds" />
          </mxGeometry>
        </mxCell>
        <mxCell id="CaH6MLlr3w6qB_pdMVhU-56" value="nid" style="shape=partialRectangle;html=1;whiteSpace=wrap;connectable=0;strokeColor=inherit;overflow=hidden;fillColor=none;top=0;left=0;bottom=0;right=0;pointerEvents=1;" parent="CaH6MLlr3w6qB_pdMVhU-40" vertex="1">
          <mxGeometry x="1070" width="50" height="40" as="geometry">
            <mxRectangle width="50" height="40" as="alternateBounds" />
          </mxGeometry>
        </mxCell>
        <mxCell id="CaH6MLlr3w6qB_pdMVhU-57" value="photo" style="shape=partialRectangle;html=1;whiteSpace=wrap;connectable=0;strokeColor=inherit;overflow=hidden;fillColor=none;top=0;left=0;bottom=0;right=0;pointerEvents=1;" parent="CaH6MLlr3w6qB_pdMVhU-40" vertex="1">
          <mxGeometry x="1120" width="60" height="40" as="geometry">
            <mxRectangle width="60" height="40" as="alternateBounds" />
          </mxGeometry>
        </mxCell>
        <mxCell id="CaH6MLlr3w6qB_pdMVhU-58" value="signature" style="shape=partialRectangle;html=1;whiteSpace=wrap;connectable=0;strokeColor=inherit;overflow=hidden;fillColor=none;top=0;left=0;bottom=0;right=0;pointerEvents=1;" parent="CaH6MLlr3w6qB_pdMVhU-40" vertex="1">
          <mxGeometry x="1180" width="80" height="40" as="geometry">
            <mxRectangle width="80" height="40" as="alternateBounds" />
          </mxGeometry>
        </mxCell>
        <mxCell id="CaH6MLlr3w6qB_pdMVhU-63" value="JOINT_AC_HOLDER" style="text;html=1;align=center;verticalAlign=middle;resizable=0;points=[];autosize=1;strokeColor=none;fillColor=none;" parent="1" vertex="1">
          <mxGeometry x="-800" y="125" width="140" height="30" as="geometry" />
        </mxCell>
        <mxCell id="CaH6MLlr3w6qB_pdMVhU-65" value="" style="shape=table;startSize=0;container=1;collapsible=0;childLayout=tableLayout;fillColor=#f5f5f5;fontColor=#333333;strokeColor=#666666;" parent="1" vertex="1">
          <mxGeometry x="-800" y="265" width="1160" height="40" as="geometry" />
        </mxCell>
        <mxCell id="CaH6MLlr3w6qB_pdMVhU-66" value="" style="shape=tableRow;horizontal=0;startSize=0;swimlaneHead=0;swimlaneBody=0;strokeColor=inherit;top=0;left=0;bottom=0;right=0;collapsible=0;dropTarget=0;fillColor=none;points=[[0,0.5],[1,0.5]];portConstraint=eastwest;" parent="CaH6MLlr3w6qB_pdMVhU-65" vertex="1">
          <mxGeometry width="1160" height="40" as="geometry" />
        </mxCell>
        <mxCell id="CaH6MLlr3w6qB_pdMVhU-67" value="&lt;u&gt;client_code&lt;/u&gt;" style="shape=partialRectangle;html=1;whiteSpace=wrap;connectable=0;strokeColor=inherit;overflow=hidden;fillColor=none;top=0;left=0;bottom=0;right=0;pointerEvents=1;" parent="CaH6MLlr3w6qB_pdMVhU-66" vertex="1">
          <mxGeometry width="90" height="40" as="geometry">
            <mxRectangle width="90" height="40" as="alternateBounds" />
          </mxGeometry>
        </mxCell>
        <mxCell id="CaH6MLlr3w6qB_pdMVhU-68" value="name" style="shape=partialRectangle;html=1;whiteSpace=wrap;connectable=0;strokeColor=inherit;overflow=hidden;fillColor=none;top=0;left=0;bottom=0;right=0;pointerEvents=1;" parent="CaH6MLlr3w6qB_pdMVhU-66" vertex="1">
          <mxGeometry x="90" width="50" height="40" as="geometry">
            <mxRectangle width="50" height="40" as="alternateBounds" />
          </mxGeometry>
        </mxCell>
        <mxCell id="CaH6MLlr3w6qB_pdMVhU-69" value="id_create_date" style="shape=partialRectangle;html=1;whiteSpace=wrap;connectable=0;strokeColor=inherit;overflow=hidden;fillColor=none;top=0;left=0;bottom=0;right=0;pointerEvents=1;" parent="CaH6MLlr3w6qB_pdMVhU-66" vertex="1">
          <mxGeometry x="140" width="90" height="40" as="geometry">
            <mxRectangle width="90" height="40" as="alternateBounds" />
          </mxGeometry>
        </mxCell>
        <mxCell id="CaH6MLlr3w6qB_pdMVhU-70" value="email" style="shape=partialRectangle;html=1;whiteSpace=wrap;connectable=0;strokeColor=inherit;overflow=hidden;fillColor=none;top=0;left=0;bottom=0;right=0;pointerEvents=1;" parent="CaH6MLlr3w6qB_pdMVhU-66" vertex="1">
          <mxGeometry x="230" width="50" height="40" as="geometry">
            <mxRectangle width="50" height="40" as="alternateBounds" />
          </mxGeometry>
        </mxCell>
        <mxCell id="CaH6MLlr3w6qB_pdMVhU-71" value="father_name" style="shape=partialRectangle;html=1;whiteSpace=wrap;connectable=0;strokeColor=inherit;overflow=hidden;fillColor=none;top=0;left=0;bottom=0;right=0;pointerEvents=1;" parent="CaH6MLlr3w6qB_pdMVhU-66" vertex="1">
          <mxGeometry x="280" width="90" height="40" as="geometry">
            <mxRectangle width="90" height="40" as="alternateBounds" />
          </mxGeometry>
        </mxCell>
        <mxCell id="CaH6MLlr3w6qB_pdMVhU-73" value="present_address" style="shape=partialRectangle;html=1;whiteSpace=wrap;connectable=0;strokeColor=inherit;overflow=hidden;fillColor=none;top=0;left=0;bottom=0;right=0;pointerEvents=1;" parent="CaH6MLlr3w6qB_pdMVhU-66" vertex="1">
          <mxGeometry x="370" width="120" height="40" as="geometry">
            <mxRectangle width="120" height="40" as="alternateBounds" />
          </mxGeometry>
        </mxCell>
        <mxCell id="CaH6MLlr3w6qB_pdMVhU-74" value="permanent_address" style="shape=partialRectangle;html=1;whiteSpace=wrap;connectable=0;strokeColor=inherit;overflow=hidden;fillColor=none;top=0;left=0;bottom=0;right=0;pointerEvents=1;" parent="CaH6MLlr3w6qB_pdMVhU-66" vertex="1">
          <mxGeometry x="490" width="120" height="40" as="geometry">
            <mxRectangle width="120" height="40" as="alternateBounds" />
          </mxGeometry>
        </mxCell>
        <mxCell id="CaH6MLlr3w6qB_pdMVhU-75" value="mobile" style="shape=partialRectangle;html=1;whiteSpace=wrap;connectable=0;strokeColor=inherit;overflow=hidden;fillColor=none;top=0;left=0;bottom=0;right=0;pointerEvents=1;" parent="CaH6MLlr3w6qB_pdMVhU-66" vertex="1">
          <mxGeometry x="610" width="50" height="40" as="geometry">
            <mxRectangle width="50" height="40" as="alternateBounds" />
          </mxGeometry>
        </mxCell>
        <mxCell id="CaH6MLlr3w6qB_pdMVhU-76" value="tel" style="shape=partialRectangle;html=1;whiteSpace=wrap;connectable=0;strokeColor=inherit;overflow=hidden;fillColor=none;top=0;left=0;bottom=0;right=0;pointerEvents=1;" parent="CaH6MLlr3w6qB_pdMVhU-66" vertex="1">
          <mxGeometry x="660" width="40" height="40" as="geometry">
            <mxRectangle width="40" height="40" as="alternateBounds" />
          </mxGeometry>
        </mxCell>
        <mxCell id="CaH6MLlr3w6qB_pdMVhU-77" value="dob" style="shape=partialRectangle;html=1;whiteSpace=wrap;connectable=0;strokeColor=inherit;overflow=hidden;fillColor=none;top=0;left=0;bottom=0;right=0;pointerEvents=1;" parent="CaH6MLlr3w6qB_pdMVhU-66" vertex="1">
          <mxGeometry x="700" width="40" height="40" as="geometry">
            <mxRectangle width="40" height="40" as="alternateBounds" />
          </mxGeometry>
        </mxCell>
        <mxCell id="CaH6MLlr3w6qB_pdMVhU-78" value="gender" style="shape=partialRectangle;html=1;whiteSpace=wrap;connectable=0;strokeColor=inherit;overflow=hidden;fillColor=none;top=0;left=0;bottom=0;right=0;pointerEvents=1;" parent="CaH6MLlr3w6qB_pdMVhU-66" vertex="1">
          <mxGeometry x="740" width="50" height="40" as="geometry">
            <mxRectangle width="50" height="40" as="alternateBounds" />
          </mxGeometry>
        </mxCell>
        <mxCell id="CaH6MLlr3w6qB_pdMVhU-79" value="tin" style="shape=partialRectangle;html=1;whiteSpace=wrap;connectable=0;strokeColor=inherit;overflow=hidden;fillColor=none;top=0;left=0;bottom=0;right=0;pointerEvents=1;" parent="CaH6MLlr3w6qB_pdMVhU-66" vertex="1">
          <mxGeometry x="790" width="40" height="40" as="geometry">
            <mxRectangle width="40" height="40" as="alternateBounds" />
          </mxGeometry>
        </mxCell>
        <mxCell id="CaH6MLlr3w6qB_pdMVhU-80" value="nationality" style="shape=partialRectangle;html=1;whiteSpace=wrap;connectable=0;strokeColor=inherit;overflow=hidden;fillColor=none;top=0;left=0;bottom=0;right=0;pointerEvents=1;" parent="CaH6MLlr3w6qB_pdMVhU-66" vertex="1">
          <mxGeometry x="830" width="70" height="40" as="geometry">
            <mxRectangle width="70" height="40" as="alternateBounds" />
          </mxGeometry>
        </mxCell>
        <mxCell id="CaH6MLlr3w6qB_pdMVhU-81" value="occupation" style="shape=partialRectangle;html=1;whiteSpace=wrap;connectable=0;strokeColor=inherit;overflow=hidden;fillColor=none;top=0;left=0;bottom=0;right=0;pointerEvents=1;" parent="CaH6MLlr3w6qB_pdMVhU-66" vertex="1">
          <mxGeometry x="900" width="70" height="40" as="geometry">
            <mxRectangle width="70" height="40" as="alternateBounds" />
          </mxGeometry>
        </mxCell>
        <mxCell id="CaH6MLlr3w6qB_pdMVhU-82" value="nid" style="shape=partialRectangle;html=1;whiteSpace=wrap;connectable=0;strokeColor=inherit;overflow=hidden;fillColor=none;top=0;left=0;bottom=0;right=0;pointerEvents=1;" parent="CaH6MLlr3w6qB_pdMVhU-66" vertex="1">
          <mxGeometry x="970" width="50" height="40" as="geometry">
            <mxRectangle width="50" height="40" as="alternateBounds" />
          </mxGeometry>
        </mxCell>
        <mxCell id="CaH6MLlr3w6qB_pdMVhU-83" value="photo" style="shape=partialRectangle;html=1;whiteSpace=wrap;connectable=0;strokeColor=inherit;overflow=hidden;fillColor=none;top=0;left=0;bottom=0;right=0;pointerEvents=1;" parent="CaH6MLlr3w6qB_pdMVhU-66" vertex="1">
          <mxGeometry x="1020" width="60" height="40" as="geometry">
            <mxRectangle width="60" height="40" as="alternateBounds" />
          </mxGeometry>
        </mxCell>
        <mxCell id="CaH6MLlr3w6qB_pdMVhU-84" value="signature" style="shape=partialRectangle;html=1;whiteSpace=wrap;connectable=0;strokeColor=inherit;overflow=hidden;fillColor=none;top=0;left=0;bottom=0;right=0;pointerEvents=1;" parent="CaH6MLlr3w6qB_pdMVhU-66" vertex="1">
          <mxGeometry x="1080" width="80" height="40" as="geometry">
            <mxRectangle width="80" height="40" as="alternateBounds" />
          </mxGeometry>
        </mxCell>
        <mxCell id="CaH6MLlr3w6qB_pdMVhU-85" value="CORPORATE_AC_HOLDER" style="text;html=1;align=center;verticalAlign=middle;resizable=0;points=[];autosize=1;strokeColor=none;fillColor=none;" parent="1" vertex="1">
          <mxGeometry x="-800" y="235" width="180" height="30" as="geometry" />
        </mxCell>
        <mxCell id="CaH6MLlr3w6qB_pdMVhU-86" value="" style="shape=table;startSize=0;container=1;collapsible=0;childLayout=tableLayout;fillColor=#f5f5f5;fontColor=#333333;strokeColor=#666666;" parent="1" vertex="1">
          <mxGeometry x="-800" y="385" width="660" height="40" as="geometry" />
        </mxCell>
        <mxCell id="CaH6MLlr3w6qB_pdMVhU-87" value="" style="shape=tableRow;horizontal=0;startSize=0;swimlaneHead=0;swimlaneBody=0;strokeColor=inherit;top=0;left=0;bottom=0;right=0;collapsible=0;dropTarget=0;fillColor=none;points=[[0,0.5],[1,0.5]];portConstraint=eastwest;" parent="CaH6MLlr3w6qB_pdMVhU-86" vertex="1">
          <mxGeometry width="660" height="40" as="geometry" />
        </mxCell>
        <mxCell id="CaH6MLlr3w6qB_pdMVhU-88" value="&lt;u&gt;manager_id&lt;/u&gt;" style="shape=partialRectangle;html=1;whiteSpace=wrap;connectable=0;strokeColor=inherit;overflow=hidden;fillColor=none;top=0;left=0;bottom=0;right=0;pointerEvents=1;" parent="CaH6MLlr3w6qB_pdMVhU-87" vertex="1">
          <mxGeometry width="110" height="40" as="geometry">
            <mxRectangle width="110" height="40" as="alternateBounds" />
          </mxGeometry>
        </mxCell>
        <mxCell id="CaH6MLlr3w6qB_pdMVhU-89" value="name" style="shape=partialRectangle;html=1;whiteSpace=wrap;connectable=0;strokeColor=inherit;overflow=hidden;fillColor=none;top=0;left=0;bottom=0;right=0;pointerEvents=1;" parent="CaH6MLlr3w6qB_pdMVhU-87" vertex="1">
          <mxGeometry x="110" width="78" height="40" as="geometry">
            <mxRectangle width="78" height="40" as="alternateBounds" />
          </mxGeometry>
        </mxCell>
        <mxCell id="CaH6MLlr3w6qB_pdMVhU-90" value="email" style="shape=partialRectangle;html=1;whiteSpace=wrap;connectable=0;strokeColor=inherit;overflow=hidden;fillColor=none;top=0;left=0;bottom=0;right=0;pointerEvents=1;" parent="CaH6MLlr3w6qB_pdMVhU-87" vertex="1">
          <mxGeometry x="188" width="76" height="40" as="geometry">
            <mxRectangle width="76" height="40" as="alternateBounds" />
          </mxGeometry>
        </mxCell>
        <mxCell id="CaH6MLlr3w6qB_pdMVhU-91" value="address" style="shape=partialRectangle;html=1;whiteSpace=wrap;connectable=0;strokeColor=inherit;overflow=hidden;fillColor=none;top=0;left=0;bottom=0;right=0;pointerEvents=1;" parent="CaH6MLlr3w6qB_pdMVhU-87" vertex="1">
          <mxGeometry x="264" width="88" height="40" as="geometry">
            <mxRectangle width="88" height="40" as="alternateBounds" />
          </mxGeometry>
        </mxCell>
        <mxCell id="CaH6MLlr3w6qB_pdMVhU-92" value="join_date" style="shape=partialRectangle;html=1;whiteSpace=wrap;connectable=0;strokeColor=inherit;overflow=hidden;fillColor=none;top=0;left=0;bottom=0;right=0;pointerEvents=1;" parent="CaH6MLlr3w6qB_pdMVhU-87" vertex="1">
          <mxGeometry x="352" width="88" height="40" as="geometry">
            <mxRectangle width="88" height="40" as="alternateBounds" />
          </mxGeometry>
        </mxCell>
        <mxCell id="CaH6MLlr3w6qB_pdMVhU-93" value="photo" style="shape=partialRectangle;html=1;whiteSpace=wrap;connectable=0;strokeColor=inherit;overflow=hidden;fillColor=none;top=0;left=0;bottom=0;right=0;pointerEvents=1;" parent="CaH6MLlr3w6qB_pdMVhU-87" vertex="1">
          <mxGeometry x="440" width="70" height="40" as="geometry">
            <mxRectangle width="70" height="40" as="alternateBounds" />
          </mxGeometry>
        </mxCell>
        <mxCell id="CaH6MLlr3w6qB_pdMVhU-94" value="signature" style="shape=partialRectangle;html=1;whiteSpace=wrap;connectable=0;strokeColor=inherit;overflow=hidden;fillColor=none;top=0;left=0;bottom=0;right=0;pointerEvents=1;" parent="CaH6MLlr3w6qB_pdMVhU-87" vertex="1">
          <mxGeometry x="510" width="80" height="40" as="geometry">
            <mxRectangle width="80" height="40" as="alternateBounds" />
          </mxGeometry>
        </mxCell>
        <mxCell id="CaH6MLlr3w6qB_pdMVhU-95" value="mobile" style="shape=partialRectangle;html=1;whiteSpace=wrap;connectable=0;strokeColor=inherit;overflow=hidden;fillColor=none;top=0;left=0;bottom=0;right=0;pointerEvents=1;" parent="CaH6MLlr3w6qB_pdMVhU-87" vertex="1">
          <mxGeometry x="590" width="70" height="40" as="geometry">
            <mxRectangle width="70" height="40" as="alternateBounds" />
          </mxGeometry>
        </mxCell>
        <mxCell id="CaH6MLlr3w6qB_pdMVhU-96" value="RELATIONSHIP_MANAGER" style="text;html=1;align=center;verticalAlign=middle;resizable=0;points=[];autosize=1;strokeColor=none;fillColor=none;" parent="1" vertex="1">
          <mxGeometry x="-810" y="359" width="180" height="30" as="geometry" />
        </mxCell>
        <mxCell id="CaH6MLlr3w6qB_pdMVhU-97" value="" style="shape=table;startSize=0;container=1;collapsible=0;childLayout=tableLayout;fillColor=#f5f5f5;fontColor=#333333;strokeColor=#666666;" parent="1" vertex="1">
          <mxGeometry x="-800" y="480" width="590" height="40" as="geometry" />
        </mxCell>
        <mxCell id="CaH6MLlr3w6qB_pdMVhU-98" value="" style="shape=tableRow;horizontal=0;startSize=0;swimlaneHead=0;swimlaneBody=0;strokeColor=inherit;top=0;left=0;bottom=0;right=0;collapsible=0;dropTarget=0;fillColor=none;points=[[0,0.5],[1,0.5]];portConstraint=eastwest;" parent="CaH6MLlr3w6qB_pdMVhU-97" vertex="1">
          <mxGeometry width="590" height="40" as="geometry" />
        </mxCell>
        <mxCell id="CaH6MLlr3w6qB_pdMVhU-99" value="&lt;u&gt;head_id&lt;/u&gt;" style="shape=partialRectangle;html=1;whiteSpace=wrap;connectable=0;strokeColor=inherit;overflow=hidden;fillColor=none;top=0;left=0;bottom=0;right=0;pointerEvents=1;" parent="CaH6MLlr3w6qB_pdMVhU-98" vertex="1">
          <mxGeometry width="110" height="40" as="geometry">
            <mxRectangle width="110" height="40" as="alternateBounds" />
          </mxGeometry>
        </mxCell>
        <mxCell id="CaH6MLlr3w6qB_pdMVhU-100" value="name" style="shape=partialRectangle;html=1;whiteSpace=wrap;connectable=0;strokeColor=inherit;overflow=hidden;fillColor=none;top=0;left=0;bottom=0;right=0;pointerEvents=1;" parent="CaH6MLlr3w6qB_pdMVhU-98" vertex="1">
          <mxGeometry x="110" width="78" height="40" as="geometry">
            <mxRectangle width="78" height="40" as="alternateBounds" />
          </mxGeometry>
        </mxCell>
        <mxCell id="CaH6MLlr3w6qB_pdMVhU-101" value="email" style="shape=partialRectangle;html=1;whiteSpace=wrap;connectable=0;strokeColor=inherit;overflow=hidden;fillColor=none;top=0;left=0;bottom=0;right=0;pointerEvents=1;" parent="CaH6MLlr3w6qB_pdMVhU-98" vertex="1">
          <mxGeometry x="188" width="76" height="40" as="geometry">
            <mxRectangle width="76" height="40" as="alternateBounds" />
          </mxGeometry>
        </mxCell>
        <mxCell id="CaH6MLlr3w6qB_pdMVhU-102" value="address" style="shape=partialRectangle;html=1;whiteSpace=wrap;connectable=0;strokeColor=inherit;overflow=hidden;fillColor=none;top=0;left=0;bottom=0;right=0;pointerEvents=1;" parent="CaH6MLlr3w6qB_pdMVhU-98" vertex="1">
          <mxGeometry x="264" width="88" height="40" as="geometry">
            <mxRectangle width="88" height="40" as="alternateBounds" />
          </mxGeometry>
        </mxCell>
        <mxCell id="CaH6MLlr3w6qB_pdMVhU-103" value="join_date" style="shape=partialRectangle;html=1;whiteSpace=wrap;connectable=0;strokeColor=inherit;overflow=hidden;fillColor=none;top=0;left=0;bottom=0;right=0;pointerEvents=1;" parent="CaH6MLlr3w6qB_pdMVhU-98" vertex="1">
          <mxGeometry x="352" width="88" height="40" as="geometry">
            <mxRectangle width="88" height="40" as="alternateBounds" />
          </mxGeometry>
        </mxCell>
        <mxCell id="CaH6MLlr3w6qB_pdMVhU-104" value="photo" style="shape=partialRectangle;html=1;whiteSpace=wrap;connectable=0;strokeColor=inherit;overflow=hidden;fillColor=none;top=0;left=0;bottom=0;right=0;pointerEvents=1;" parent="CaH6MLlr3w6qB_pdMVhU-98" vertex="1">
          <mxGeometry x="440" width="70" height="40" as="geometry">
            <mxRectangle width="70" height="40" as="alternateBounds" />
          </mxGeometry>
        </mxCell>
        <mxCell id="CaH6MLlr3w6qB_pdMVhU-105" value="signature" style="shape=partialRectangle;html=1;whiteSpace=wrap;connectable=0;strokeColor=inherit;overflow=hidden;fillColor=none;top=0;left=0;bottom=0;right=0;pointerEvents=1;" parent="CaH6MLlr3w6qB_pdMVhU-98" vertex="1">
          <mxGeometry x="510" width="80" height="40" as="geometry">
            <mxRectangle width="80" height="40" as="alternateBounds" />
          </mxGeometry>
        </mxCell>
        <mxCell id="CaH6MLlr3w6qB_pdMVhU-107" value="" style="endArrow=none;dashed=1;html=1;rounded=0;" parent="1" edge="1">
          <mxGeometry width="50" height="50" relative="1" as="geometry">
            <mxPoint x="-128" y="413" as="sourcePoint" />
            <mxPoint x="-78" y="413" as="targetPoint" />
          </mxGeometry>
        </mxCell>
        <mxCell id="CaH6MLlr3w6qB_pdMVhU-110" style="edgeStyle=orthogonalEdgeStyle;rounded=0;orthogonalLoop=1;jettySize=auto;html=1;curved=1;entryX=0.09;entryY=1.061;entryDx=0;entryDy=0;entryPerimeter=0;" parent="1" target="CaH6MLlr3w6qB_pdMVhU-98" edge="1">
          <mxGeometry relative="1" as="geometry">
            <mxPoint x="-750" y="545" as="targetPoint" />
            <mxPoint x="-100" y="427" as="sourcePoint" />
            <Array as="points">
              <mxPoint x="-100" y="450" />
              <mxPoint x="-90" y="450" />
              <mxPoint x="-90" y="550" />
              <mxPoint x="-747" y="550" />
            </Array>
          </mxGeometry>
        </mxCell>
        <mxCell id="CaH6MLlr3w6qB_pdMVhU-113" value="" style="endArrow=classic;html=1;exitX=0.032;exitY=1.08;exitDx=0;exitDy=0;exitPerimeter=0;curved=1;entryX=0.031;entryY=1.05;entryDx=0;entryDy=0;entryPerimeter=0;" parent="1" source="CaH6MLlr3w6qB_pdMVhU-40" target="oYCZfajTv22bk5wUYPz_-8" edge="1">
          <mxGeometry width="50" height="50" relative="1" as="geometry">
            <mxPoint x="-760" y="205" as="sourcePoint" />
            <mxPoint x="-770" y="95" as="targetPoint" />
            <Array as="points">
              <mxPoint x="-760" y="215" />
              <mxPoint x="-830" y="215" />
              <mxPoint x="-820" y="135" />
              <mxPoint x="-780" y="125" />
            </Array>
          </mxGeometry>
        </mxCell>
        <mxCell id="CaH6MLlr3w6qB_pdMVhU-114" value="" style="endArrow=classic;html=1;exitX=0.032;exitY=1.08;exitDx=0;exitDy=0;exitPerimeter=0;curved=1;entryX=0.023;entryY=1.038;entryDx=0;entryDy=0;entryPerimeter=0;" parent="1" target="oYCZfajTv22bk5wUYPz_-8" edge="1">
          <mxGeometry width="50" height="50" relative="1" as="geometry">
            <mxPoint x="-760" y="308" as="sourcePoint" />
            <mxPoint x="-800" y="95" as="targetPoint" />
            <Array as="points">
              <mxPoint x="-760" y="325" />
              <mxPoint x="-830" y="325" />
              <mxPoint x="-830" y="235" />
              <mxPoint x="-810" y="150" />
            </Array>
          </mxGeometry>
        </mxCell>
        <mxCell id="CaH6MLlr3w6qB_pdMVhU-116" value="" style="endArrow=classic;html=1;exitX=0.381;exitY=1.096;exitDx=0;exitDy=0;exitPerimeter=0;curved=1;entryX=0.09;entryY=1.097;entryDx=0;entryDy=0;entryPerimeter=0;" parent="1" source="3AwoEfTx26ynnq3Ft3Jd-22" target="CaH6MLlr3w6qB_pdMVhU-87" edge="1">
          <mxGeometry width="50" height="50" relative="1" as="geometry">
            <mxPoint x="360" y="485" as="sourcePoint" />
            <mxPoint x="-740" y="455" as="targetPoint" />
            <Array as="points">
              <mxPoint x="490" y="295" />
              <mxPoint x="160" y="455" />
              <mxPoint x="-290" y="455" />
              <mxPoint x="-720" y="465" />
            </Array>
          </mxGeometry>
        </mxCell>
        <mxCell id="CaH6MLlr3w6qB_pdMVhU-117" value="HEAD_OF_SETTLEMENT" style="text;html=1;align=center;verticalAlign=middle;resizable=0;points=[];autosize=1;strokeColor=none;fillColor=none;" parent="1" vertex="1">
          <mxGeometry x="-810" y="455" width="170" height="30" as="geometry" />
        </mxCell>
        <mxCell id="CaH6MLlr3w6qB_pdMVhU-118" value="" style="shape=table;startSize=0;container=1;collapsible=0;childLayout=tableLayout;fillColor=#f5f5f5;fontColor=#333333;strokeColor=#666666;" parent="1" vertex="1">
          <mxGeometry x="-800" y="589" width="430" height="40" as="geometry" />
        </mxCell>
        <mxCell id="CaH6MLlr3w6qB_pdMVhU-119" value="" style="shape=tableRow;horizontal=0;startSize=0;swimlaneHead=0;swimlaneBody=0;strokeColor=inherit;top=0;left=0;bottom=0;right=0;collapsible=0;dropTarget=0;fillColor=none;points=[[0,0.5],[1,0.5]];portConstraint=eastwest;" parent="CaH6MLlr3w6qB_pdMVhU-118" vertex="1">
          <mxGeometry width="430" height="40" as="geometry" />
        </mxCell>
        <mxCell id="CaH6MLlr3w6qB_pdMVhU-120" value="&lt;u&gt;bank_ac_number&lt;/u&gt;" style="shape=partialRectangle;html=1;whiteSpace=wrap;connectable=0;strokeColor=inherit;overflow=hidden;fillColor=none;top=0;left=0;bottom=0;right=0;pointerEvents=1;" parent="CaH6MLlr3w6qB_pdMVhU-119" vertex="1">
          <mxGeometry width="110" height="40" as="geometry">
            <mxRectangle width="110" height="40" as="alternateBounds" />
          </mxGeometry>
        </mxCell>
        <mxCell id="CaH6MLlr3w6qB_pdMVhU-121" value="name" style="shape=partialRectangle;html=1;whiteSpace=wrap;connectable=0;strokeColor=inherit;overflow=hidden;fillColor=none;top=0;left=0;bottom=0;right=0;pointerEvents=1;" parent="CaH6MLlr3w6qB_pdMVhU-119" vertex="1">
          <mxGeometry x="110" width="51" height="40" as="geometry">
            <mxRectangle width="51" height="40" as="alternateBounds" />
          </mxGeometry>
        </mxCell>
        <mxCell id="CaH6MLlr3w6qB_pdMVhU-122" value="branch" style="shape=partialRectangle;html=1;whiteSpace=wrap;connectable=0;strokeColor=inherit;overflow=hidden;fillColor=none;top=0;left=0;bottom=0;right=0;pointerEvents=1;" parent="CaH6MLlr3w6qB_pdMVhU-119" vertex="1">
          <mxGeometry x="161" width="65" height="40" as="geometry">
            <mxRectangle width="65" height="40" as="alternateBounds" />
          </mxGeometry>
        </mxCell>
        <mxCell id="CaH6MLlr3w6qB_pdMVhU-123" value="routing_num" style="shape=partialRectangle;html=1;whiteSpace=wrap;connectable=0;strokeColor=inherit;overflow=hidden;fillColor=none;top=0;left=0;bottom=0;right=0;pointerEvents=1;" parent="CaH6MLlr3w6qB_pdMVhU-119" vertex="1">
          <mxGeometry x="226" width="97" height="40" as="geometry">
            <mxRectangle width="97" height="40" as="alternateBounds" />
          </mxGeometry>
        </mxCell>
        <mxCell id="CaH6MLlr3w6qB_pdMVhU-124" value="client_cde" style="shape=partialRectangle;html=1;whiteSpace=wrap;connectable=0;strokeColor=inherit;overflow=hidden;fillColor=none;top=0;left=0;bottom=0;right=0;pointerEvents=1;" parent="CaH6MLlr3w6qB_pdMVhU-119" vertex="1">
          <mxGeometry x="323" width="107" height="40" as="geometry">
            <mxRectangle width="107" height="40" as="alternateBounds" />
          </mxGeometry>
        </mxCell>
        <mxCell id="CaH6MLlr3w6qB_pdMVhU-125" value="BANK" style="text;html=1;align=center;verticalAlign=middle;resizable=0;points=[];autosize=1;strokeColor=none;fillColor=none;" parent="1" vertex="1">
          <mxGeometry x="-800" y="565" width="60" height="30" as="geometry" />
        </mxCell>
        <mxCell id="CaH6MLlr3w6qB_pdMVhU-127" value="" style="endArrow=none;dashed=1;html=1;rounded=0;" parent="1" edge="1">
          <mxGeometry width="50" height="50" relative="1" as="geometry">
            <mxPoint x="-455" y="617" as="sourcePoint" />
            <mxPoint x="-385" y="617" as="targetPoint" />
          </mxGeometry>
        </mxCell>
        <mxCell id="CaH6MLlr3w6qB_pdMVhU-129" value="" style="shape=table;startSize=0;container=1;collapsible=0;childLayout=tableLayout;fillColor=#f5f5f5;fontColor=#333333;strokeColor=#666666;" parent="1" vertex="1">
          <mxGeometry x="-800" y="695" width="770" height="40" as="geometry" />
        </mxCell>
        <mxCell id="CaH6MLlr3w6qB_pdMVhU-130" value="" style="shape=tableRow;horizontal=0;startSize=0;swimlaneHead=0;swimlaneBody=0;strokeColor=inherit;top=0;left=0;bottom=0;right=0;collapsible=0;dropTarget=0;fillColor=none;points=[[0,0.5],[1,0.5]];portConstraint=eastwest;" parent="CaH6MLlr3w6qB_pdMVhU-129" vertex="1">
          <mxGeometry width="770" height="40" as="geometry" />
        </mxCell>
        <mxCell id="CaH6MLlr3w6qB_pdMVhU-131" value="&lt;u&gt;bo_id&lt;/u&gt;" style="shape=partialRectangle;html=1;whiteSpace=wrap;connectable=0;strokeColor=inherit;overflow=hidden;fillColor=none;top=0;left=0;bottom=0;right=0;pointerEvents=1;" parent="CaH6MLlr3w6qB_pdMVhU-130" vertex="1">
          <mxGeometry width="67" height="40" as="geometry">
            <mxRectangle width="67" height="40" as="alternateBounds" />
          </mxGeometry>
        </mxCell>
        <mxCell id="CaH6MLlr3w6qB_pdMVhU-132" value="open_date" style="shape=partialRectangle;html=1;whiteSpace=wrap;connectable=0;strokeColor=inherit;overflow=hidden;fillColor=none;top=0;left=0;bottom=0;right=0;pointerEvents=1;" parent="CaH6MLlr3w6qB_pdMVhU-130" vertex="1">
          <mxGeometry x="67" width="77" height="40" as="geometry">
            <mxRectangle width="77" height="40" as="alternateBounds" />
          </mxGeometry>
        </mxCell>
        <mxCell id="CaH6MLlr3w6qB_pdMVhU-134" value="operation_type" style="shape=partialRectangle;html=1;whiteSpace=wrap;connectable=0;strokeColor=inherit;overflow=hidden;fillColor=none;top=0;left=0;bottom=0;right=0;pointerEvents=1;" parent="CaH6MLlr3w6qB_pdMVhU-130" vertex="1">
          <mxGeometry x="144" width="106" height="40" as="geometry">
            <mxRectangle width="106" height="40" as="alternateBounds" />
          </mxGeometry>
        </mxCell>
        <mxCell id="CaH6MLlr3w6qB_pdMVhU-135" value="ac_branch" style="shape=partialRectangle;html=1;whiteSpace=wrap;connectable=0;strokeColor=inherit;overflow=hidden;fillColor=none;top=0;left=0;bottom=0;right=0;pointerEvents=1;" parent="CaH6MLlr3w6qB_pdMVhU-130" vertex="1">
          <mxGeometry x="250" width="87" height="40" as="geometry">
            <mxRectangle width="87" height="40" as="alternateBounds" />
          </mxGeometry>
        </mxCell>
        <mxCell id="CaH6MLlr3w6qB_pdMVhU-136" value="introducer_id" style="shape=partialRectangle;html=1;whiteSpace=wrap;connectable=0;strokeColor=inherit;overflow=hidden;fillColor=none;top=0;left=0;bottom=0;right=0;pointerEvents=1;" parent="CaH6MLlr3w6qB_pdMVhU-130" vertex="1">
          <mxGeometry x="337" width="106" height="40" as="geometry">
            <mxRectangle width="106" height="40" as="alternateBounds" />
          </mxGeometry>
        </mxCell>
        <mxCell id="CaH6MLlr3w6qB_pdMVhU-137" value="client_code" style="shape=partialRectangle;html=1;whiteSpace=wrap;connectable=0;strokeColor=inherit;overflow=hidden;fillColor=none;top=0;left=0;bottom=0;right=0;pointerEvents=1;" parent="CaH6MLlr3w6qB_pdMVhU-130" vertex="1">
          <mxGeometry x="443" width="96" height="40" as="geometry">
            <mxRectangle width="96" height="40" as="alternateBounds" />
          </mxGeometry>
        </mxCell>
        <mxCell id="CaH6MLlr3w6qB_pdMVhU-138" value="passport_num" style="shape=partialRectangle;html=1;whiteSpace=wrap;connectable=0;strokeColor=inherit;overflow=hidden;fillColor=none;top=0;left=0;bottom=0;right=0;pointerEvents=1;" parent="CaH6MLlr3w6qB_pdMVhU-130" vertex="1">
          <mxGeometry x="539" width="131" height="40" as="geometry">
            <mxRectangle width="131" height="40" as="alternateBounds" />
          </mxGeometry>
        </mxCell>
        <mxCell id="CaH6MLlr3w6qB_pdMVhU-139" value="poa_id" style="shape=partialRectangle;html=1;whiteSpace=wrap;connectable=0;strokeColor=inherit;overflow=hidden;fillColor=none;top=0;left=0;bottom=0;right=0;pointerEvents=1;" parent="CaH6MLlr3w6qB_pdMVhU-130" vertex="1">
          <mxGeometry x="670" width="100" height="40" as="geometry">
            <mxRectangle width="100" height="40" as="alternateBounds" />
          </mxGeometry>
        </mxCell>
        <mxCell id="CaH6MLlr3w6qB_pdMVhU-140" value="BO_AC" style="text;html=1;align=center;verticalAlign=middle;resizable=0;points=[];autosize=1;strokeColor=none;fillColor=none;" parent="1" vertex="1">
          <mxGeometry x="-800" y="668" width="60" height="30" as="geometry" />
        </mxCell>
        <mxCell id="CaH6MLlr3w6qB_pdMVhU-141" value="" style="endArrow=none;dashed=1;html=1;rounded=0;" parent="1" edge="1">
          <mxGeometry width="50" height="50" relative="1" as="geometry">
            <mxPoint x="-429" y="723" as="sourcePoint" />
            <mxPoint x="-359" y="723" as="targetPoint" />
          </mxGeometry>
        </mxCell>
        <mxCell id="CaH6MLlr3w6qB_pdMVhU-142" value="" style="endArrow=none;dashed=1;html=1;rounded=0;" parent="1" edge="1">
          <mxGeometry width="50" height="50" relative="1" as="geometry">
            <mxPoint x="-346" y="723" as="sourcePoint" />
            <mxPoint x="-276" y="723" as="targetPoint" />
          </mxGeometry>
        </mxCell>
        <mxCell id="CaH6MLlr3w6qB_pdMVhU-143" value="" style="endArrow=none;dashed=1;html=1;rounded=0;" parent="1" edge="1">
          <mxGeometry width="50" height="50" relative="1" as="geometry">
            <mxPoint x="-241" y="722" as="sourcePoint" />
            <mxPoint x="-151" y="722" as="targetPoint" />
          </mxGeometry>
        </mxCell>
        <mxCell id="CaH6MLlr3w6qB_pdMVhU-144" value="" style="endArrow=none;dashed=1;html=1;rounded=0;" parent="1" edge="1">
          <mxGeometry width="50" height="50" relative="1" as="geometry">
            <mxPoint x="-117" y="723" as="sourcePoint" />
            <mxPoint x="-47" y="723" as="targetPoint" />
          </mxGeometry>
        </mxCell>
        <mxCell id="CaH6MLlr3w6qB_pdMVhU-145" value="&lt;u&gt;poa_id&lt;/u&gt;" style="rounded=0;whiteSpace=wrap;html=1;fillColor=#f5f5f5;fontColor=#333333;strokeColor=#666666;" parent="1" vertex="1">
          <mxGeometry x="-800" y="832" width="70" height="40" as="geometry" />
        </mxCell>
        <mxCell id="CaH6MLlr3w6qB_pdMVhU-146" value="name" style="rounded=0;whiteSpace=wrap;html=1;fillColor=#f5f5f5;fontColor=#333333;strokeColor=#666666;" parent="1" vertex="1">
          <mxGeometry x="-730" y="832" width="60" height="40" as="geometry" />
        </mxCell>
        <mxCell id="CaH6MLlr3w6qB_pdMVhU-147" value="POA" style="text;html=1;align=center;verticalAlign=middle;resizable=0;points=[];autosize=1;strokeColor=none;fillColor=none;" parent="1" vertex="1">
          <mxGeometry x="-798" y="806" width="50" height="30" as="geometry" />
        </mxCell>
        <mxCell id="CaH6MLlr3w6qB_pdMVhU-149" value="mobile" style="rounded=0;whiteSpace=wrap;html=1;fillColor=#f5f5f5;fontColor=#333333;strokeColor=#666666;" parent="1" vertex="1">
          <mxGeometry x="-670" y="832" width="60" height="40" as="geometry" />
        </mxCell>
        <mxCell id="CaH6MLlr3w6qB_pdMVhU-150" value="address" style="rounded=0;whiteSpace=wrap;html=1;fillColor=#f5f5f5;fontColor=#333333;strokeColor=#666666;" parent="1" vertex="1">
          <mxGeometry x="-490" y="832" width="70" height="40" as="geometry" />
        </mxCell>
        <mxCell id="CaH6MLlr3w6qB_pdMVhU-151" value="passport_num" style="rounded=0;whiteSpace=wrap;html=1;fillColor=#f5f5f5;fontColor=#333333;strokeColor=#666666;" parent="1" vertex="1">
          <mxGeometry x="-420" y="832" width="100" height="40" as="geometry" />
        </mxCell>
        <mxCell id="CaH6MLlr3w6qB_pdMVhU-152" value="&lt;u&gt;introducer_id&lt;/u&gt;" style="rounded=0;whiteSpace=wrap;html=1;fillColor=#f5f5f5;fontColor=#333333;strokeColor=#666666;" parent="1" vertex="1">
          <mxGeometry x="60" y="832" width="120" height="40" as="geometry" />
        </mxCell>
        <mxCell id="CaH6MLlr3w6qB_pdMVhU-153" value="bo_id" style="rounded=0;whiteSpace=wrap;html=1;fillColor=#f5f5f5;fontColor=#333333;strokeColor=#666666;" parent="1" vertex="1">
          <mxGeometry x="-320" y="832" width="70" height="40" as="geometry" />
        </mxCell>
        <mxCell id="CaH6MLlr3w6qB_pdMVhU-154" value="email" style="rounded=0;whiteSpace=wrap;html=1;fillColor=#f5f5f5;fontColor=#333333;strokeColor=#666666;" parent="1" vertex="1">
          <mxGeometry x="-560" y="832" width="70" height="40" as="geometry" />
        </mxCell>
        <mxCell id="CaH6MLlr3w6qB_pdMVhU-155" value="tel" style="rounded=0;whiteSpace=wrap;html=1;fillColor=#f5f5f5;fontColor=#333333;strokeColor=#666666;" parent="1" vertex="1">
          <mxGeometry x="-610" y="832" width="50" height="40" as="geometry" />
        </mxCell>
        <mxCell id="CaH6MLlr3w6qB_pdMVhU-156" value="" style="endArrow=none;dashed=1;html=1;rounded=0;fillColor=#f5f5f5;strokeColor=#666666;" parent="1" edge="1">
          <mxGeometry width="50" height="50" relative="1" as="geometry">
            <mxPoint x="-410" y="862" as="sourcePoint" />
            <mxPoint x="-330" y="862" as="targetPoint" />
          </mxGeometry>
        </mxCell>
        <mxCell id="CaH6MLlr3w6qB_pdMVhU-157" value="" style="endArrow=none;dashed=1;html=1;rounded=0;fillColor=#f5f5f5;strokeColor=#666666;" parent="1" edge="1">
          <mxGeometry width="50" height="50" relative="1" as="geometry">
            <mxPoint x="-310" y="862" as="sourcePoint" />
            <mxPoint x="-260" y="862" as="targetPoint" />
          </mxGeometry>
        </mxCell>
        <mxCell id="CaH6MLlr3w6qB_pdMVhU-158" value="client_code" style="rounded=0;whiteSpace=wrap;html=1;fillColor=#f5f5f5;fontColor=#333333;strokeColor=#666666;" parent="1" vertex="1">
          <mxGeometry x="180" y="832" width="120" height="40" as="geometry" />
        </mxCell>
        <mxCell id="CaH6MLlr3w6qB_pdMVhU-160" value="" style="endArrow=classic;html=1;exitX=0.25;exitY=1;exitDx=0;exitDy=0;entryX=0.992;entryY=0.967;entryDx=0;entryDy=0;entryPerimeter=0;curved=1;" parent="1" source="3AwoEfTx26ynnq3Ft3Jd-20" target="CaH6MLlr3w6qB_pdMVhU-140" edge="1">
          <mxGeometry width="50" height="50" relative="1" as="geometry">
            <mxPoint x="-180" y="475" as="sourcePoint" />
            <mxPoint x="-410" y="675" as="targetPoint" />
            <Array as="points">
              <mxPoint x="510" y="225" />
              <mxPoint x="90" y="495" />
              <mxPoint x="-310" y="635" />
              <mxPoint x="-700" y="665" />
            </Array>
          </mxGeometry>
        </mxCell>
        <mxCell id="CaH6MLlr3w6qB_pdMVhU-161" value="" style="endArrow=classic;html=1;exitX=0.25;exitY=1;exitDx=0;exitDy=0;entryX=0.111;entryY=1.106;entryDx=0;entryDy=0;entryPerimeter=0;curved=1;" parent="1" source="3AwoEfTx26ynnq3Ft3Jd-21" target="CaH6MLlr3w6qB_pdMVhU-119" edge="1">
          <mxGeometry width="50" height="50" relative="1" as="geometry">
            <mxPoint x="-110" y="475" as="sourcePoint" />
            <mxPoint x="-760" y="655" as="targetPoint" />
            <Array as="points">
              <mxPoint x="340" y="415" />
              <mxPoint x="-90" y="615" />
              <mxPoint x="-470" y="675" />
              <mxPoint x="-740" y="665" />
            </Array>
          </mxGeometry>
        </mxCell>
        <mxCell id="CaH6MLlr3w6qB_pdMVhU-162" value="INTRODUCER" style="text;html=1;align=center;verticalAlign=middle;resizable=0;points=[];autosize=1;strokeColor=none;fillColor=none;" parent="1" vertex="1">
          <mxGeometry x="60" y="802" width="100" height="30" as="geometry" />
        </mxCell>
        <mxCell id="CaH6MLlr3w6qB_pdMVhU-163" value="" style="endArrow=classic;html=1;exitX=0.943;exitY=1;exitDx=0;exitDy=0;exitPerimeter=0;entryX=0.75;entryY=0;entryDx=0;entryDy=0;curved=1;" parent="1" source="CaH6MLlr3w6qB_pdMVhU-130" target="CaH6MLlr3w6qB_pdMVhU-145" edge="1">
          <mxGeometry width="50" height="50" relative="1" as="geometry">
            <mxPoint x="26.619999999999873" y="735.0000000000002" as="sourcePoint" />
            <mxPoint x="-750" y="827.52" as="targetPoint" />
            <Array as="points">
              <mxPoint x="-112.02" y="771.76" />
              <mxPoint x="-630" y="795" />
              <mxPoint x="-710" y="805" />
            </Array>
          </mxGeometry>
        </mxCell>
        <mxCell id="CaH6MLlr3w6qB_pdMVhU-164" value="" style="endArrow=classic;html=1;entryX=0;entryY=0.5;entryDx=0;entryDy=0;exitX=0.526;exitY=0.998;exitDx=0;exitDy=0;exitPerimeter=0;curved=1;" parent="1" source="CaH6MLlr3w6qB_pdMVhU-130" target="CaH6MLlr3w6qB_pdMVhU-152" edge="1">
          <mxGeometry width="50" height="50" relative="1" as="geometry">
            <mxPoint x="-340" y="805" as="sourcePoint" />
            <mxPoint x="-290" y="755" as="targetPoint" />
            <Array as="points">
              <mxPoint x="-120" y="770" />
            </Array>
          </mxGeometry>
        </mxCell>
        <mxCell id="CaH6MLlr3w6qB_pdMVhU-165" value="" style="endArrow=classic;html=1;exitX=0.652;exitY=-0.058;exitDx=0;exitDy=0;exitPerimeter=0;entryX=0;entryY=0.5;entryDx=0;entryDy=0;curved=1;" parent="1" source="CaH6MLlr3w6qB_pdMVhU-130" target="oYCZfajTv22bk5wUYPz_-8" edge="1">
          <mxGeometry width="50" height="50" relative="1" as="geometry">
            <mxPoint x="-110" y="605" as="sourcePoint" />
            <mxPoint x="-680" y="325" as="targetPoint" />
            <Array as="points">
              <mxPoint x="160" y="305" />
              <mxPoint x="-810" y="385" />
              <mxPoint x="-840" y="195" />
              <mxPoint x="-830" y="85" />
            </Array>
          </mxGeometry>
        </mxCell>
        <mxCell id="CaH6MLlr3w6qB_pdMVhU-166" value="" style="endArrow=none;dashed=1;html=1;rounded=0;" parent="1" edge="1">
          <mxGeometry width="50" height="50" relative="1" as="geometry">
            <mxPoint x="200" y="860" as="sourcePoint" />
            <mxPoint x="290" y="860" as="targetPoint" />
          </mxGeometry>
        </mxCell>
        <mxCell id="CaH6MLlr3w6qB_pdMVhU-167" value="" style="endArrow=classic;html=1;entryX=0.069;entryY=1.07;entryDx=0;entryDy=0;entryPerimeter=0;exitX=0.5;exitY=0;exitDx=0;exitDy=0;curved=1;" parent="1" source="CaH6MLlr3w6qB_pdMVhU-153" target="CaH6MLlr3w6qB_pdMVhU-130" edge="1">
          <mxGeometry width="50" height="50" relative="1" as="geometry">
            <mxPoint x="-110" y="855" as="sourcePoint" />
            <mxPoint x="-60" y="805" as="targetPoint" />
            <Array as="points">
              <mxPoint x="-420" y="795" />
              <mxPoint x="-710" y="785" />
            </Array>
          </mxGeometry>
        </mxCell>
        <mxCell id="CaH6MLlr3w6qB_pdMVhU-168" value="&lt;u&gt;passport_num&lt;/u&gt;" style="rounded=0;whiteSpace=wrap;html=1;fillColor=#f5f5f5;fontColor=#333333;strokeColor=#666666;" parent="1" vertex="1">
          <mxGeometry x="193" y="672" width="110" height="40" as="geometry" />
        </mxCell>
        <mxCell id="CaH6MLlr3w6qB_pdMVhU-171" value="issue_place" style="rounded=0;whiteSpace=wrap;html=1;fillColor=#f5f5f5;fontColor=#333333;strokeColor=#666666;" parent="1" vertex="1">
          <mxGeometry x="303" y="672" width="90" height="40" as="geometry" />
        </mxCell>
        <mxCell id="CaH6MLlr3w6qB_pdMVhU-172" value="issue_date" style="rounded=0;whiteSpace=wrap;html=1;fillColor=#f5f5f5;fontColor=#333333;strokeColor=#666666;" parent="1" vertex="1">
          <mxGeometry x="393" y="672" width="90" height="40" as="geometry" />
        </mxCell>
        <mxCell id="CaH6MLlr3w6qB_pdMVhU-173" value="poa_id" style="rounded=0;whiteSpace=wrap;html=1;fillColor=#f5f5f5;fontColor=#333333;strokeColor=#666666;" parent="1" vertex="1">
          <mxGeometry x="573" y="672" width="70" height="40" as="geometry" />
        </mxCell>
        <mxCell id="CaH6MLlr3w6qB_pdMVhU-174" value="expiry_date" style="rounded=0;whiteSpace=wrap;html=1;fillColor=#f5f5f5;fontColor=#333333;strokeColor=#666666;" parent="1" vertex="1">
          <mxGeometry x="483" y="672" width="90" height="40" as="geometry" />
        </mxCell>
        <mxCell id="CaH6MLlr3w6qB_pdMVhU-175" value="bo_id" style="rounded=0;whiteSpace=wrap;html=1;fillColor=#f5f5f5;fontColor=#333333;strokeColor=#666666;" parent="1" vertex="1">
          <mxGeometry x="643" y="672" width="70" height="40" as="geometry" />
        </mxCell>
        <mxCell id="CaH6MLlr3w6qB_pdMVhU-176" value="" style="endArrow=none;dashed=1;html=1;rounded=0;fillColor=#f5f5f5;strokeColor=#666666;" parent="1" edge="1">
          <mxGeometry width="50" height="50" relative="1" as="geometry">
            <mxPoint x="585" y="700" as="sourcePoint" />
            <mxPoint x="635" y="700" as="targetPoint" />
          </mxGeometry>
        </mxCell>
        <mxCell id="CaH6MLlr3w6qB_pdMVhU-177" value="" style="endArrow=none;dashed=1;html=1;rounded=0;fillColor=#f5f5f5;strokeColor=#666666;" parent="1" edge="1">
          <mxGeometry width="50" height="50" relative="1" as="geometry">
            <mxPoint x="656" y="700" as="sourcePoint" />
            <mxPoint x="706" y="700" as="targetPoint" />
          </mxGeometry>
        </mxCell>
        <mxCell id="CaH6MLlr3w6qB_pdMVhU-178" value="nominee_id" style="rounded=0;whiteSpace=wrap;html=1;fillColor=#f5f5f5;fontColor=#333333;strokeColor=#666666;" parent="1" vertex="1">
          <mxGeometry x="713" y="672" width="90" height="40" as="geometry" />
        </mxCell>
        <mxCell id="CaH6MLlr3w6qB_pdMVhU-179" value="" style="endArrow=none;dashed=1;html=1;rounded=0;fillColor=#f5f5f5;strokeColor=#666666;" parent="1" edge="1">
          <mxGeometry width="50" height="50" relative="1" as="geometry">
            <mxPoint x="726" y="700" as="sourcePoint" />
            <mxPoint x="793" y="700" as="targetPoint" />
          </mxGeometry>
        </mxCell>
        <mxCell id="CaH6MLlr3w6qB_pdMVhU-180" value="PASSPORT" style="text;html=1;align=center;verticalAlign=middle;resizable=0;points=[];autosize=1;" parent="1" vertex="1">
          <mxGeometry x="190" y="646" width="90" height="30" as="geometry" />
        </mxCell>
        <mxCell id="CaH6MLlr3w6qB_pdMVhU-181" value="&lt;u&gt;nominee_id&lt;/u&gt;" style="rounded=0;whiteSpace=wrap;html=1;fillColor=#f5f5f5;fontColor=#333333;strokeColor=#666666;" parent="1" vertex="1">
          <mxGeometry x="-800" y="932" width="90" height="40" as="geometry" />
        </mxCell>
        <mxCell id="CaH6MLlr3w6qB_pdMVhU-182" value="NOMINEE" style="text;html=1;align=center;verticalAlign=middle;resizable=0;points=[];autosize=1;strokeColor=none;fillColor=none;" parent="1" vertex="1">
          <mxGeometry x="-802" y="905" width="80" height="30" as="geometry" />
        </mxCell>
        <mxCell id="CaH6MLlr3w6qB_pdMVhU-183" value="name" style="rounded=0;whiteSpace=wrap;html=1;fillColor=#f5f5f5;fontColor=#333333;strokeColor=#666666;" parent="1" vertex="1">
          <mxGeometry x="-710" y="932" width="60" height="40" as="geometry" />
        </mxCell>
        <mxCell id="CaH6MLlr3w6qB_pdMVhU-184" value="relationship" style="rounded=0;whiteSpace=wrap;html=1;fillColor=#f5f5f5;fontColor=#333333;strokeColor=#666666;" parent="1" vertex="1">
          <mxGeometry x="-650" y="932" width="80" height="40" as="geometry" />
        </mxCell>
        <mxCell id="CaH6MLlr3w6qB_pdMVhU-185" value="percentage" style="rounded=0;whiteSpace=wrap;html=1;fillColor=#f5f5f5;fontColor=#333333;strokeColor=#666666;" parent="1" vertex="1">
          <mxGeometry x="-570" y="932" width="80" height="40" as="geometry" />
        </mxCell>
        <mxCell id="CaH6MLlr3w6qB_pdMVhU-186" value="residency" style="rounded=0;whiteSpace=wrap;html=1;fillColor=#f5f5f5;fontColor=#333333;strokeColor=#666666;" parent="1" vertex="1">
          <mxGeometry x="-490" y="932" width="80" height="40" as="geometry" />
        </mxCell>
        <mxCell id="CaH6MLlr3w6qB_pdMVhU-187" value="guardian_name" style="rounded=0;whiteSpace=wrap;html=1;fillColor=#f5f5f5;fontColor=#333333;strokeColor=#666666;" parent="1" vertex="1">
          <mxGeometry x="-370" y="1027" width="100" height="40" as="geometry" />
        </mxCell>
        <mxCell id="CaH6MLlr3w6qB_pdMVhU-188" value="&lt;u&gt;nominee_id&lt;/u&gt;" style="rounded=0;whiteSpace=wrap;html=1;fillColor=#f5f5f5;fontColor=#333333;strokeColor=#666666;" parent="1" vertex="1">
          <mxGeometry x="-450" y="1027" width="80" height="40" as="geometry" />
        </mxCell>
        <mxCell id="CaH6MLlr3w6qB_pdMVhU-189" value="age_status" style="rounded=0;whiteSpace=wrap;html=1;fillColor=#f5f5f5;fontColor=#333333;strokeColor=#666666;" parent="1" vertex="1">
          <mxGeometry x="-130" y="932" width="100" height="40" as="geometry" />
        </mxCell>
        <mxCell id="CaH6MLlr3w6qB_pdMVhU-190" value="signature" style="rounded=0;whiteSpace=wrap;html=1;fillColor=#f5f5f5;fontColor=#333333;strokeColor=#666666;" parent="1" vertex="1">
          <mxGeometry x="-210" y="932" width="80" height="40" as="geometry" />
        </mxCell>
        <mxCell id="CaH6MLlr3w6qB_pdMVhU-191" value="photo" style="rounded=0;whiteSpace=wrap;html=1;fillColor=#f5f5f5;fontColor=#333333;strokeColor=#666666;" parent="1" vertex="1">
          <mxGeometry x="-270" y="932" width="60" height="40" as="geometry" />
        </mxCell>
        <mxCell id="CaH6MLlr3w6qB_pdMVhU-192" value="dob" style="rounded=0;whiteSpace=wrap;html=1;fillColor=#f5f5f5;fontColor=#333333;strokeColor=#666666;" parent="1" vertex="1">
          <mxGeometry x="-330" y="932" width="60" height="40" as="geometry" />
        </mxCell>
        <mxCell id="CaH6MLlr3w6qB_pdMVhU-193" value="nationality" style="rounded=0;whiteSpace=wrap;html=1;fillColor=#f5f5f5;fontColor=#333333;strokeColor=#666666;" parent="1" vertex="1">
          <mxGeometry x="-410" y="932" width="80" height="40" as="geometry" />
        </mxCell>
        <mxCell id="CaH6MLlr3w6qB_pdMVhU-195" value="relationship" style="rounded=0;whiteSpace=wrap;html=1;fillColor=#f5f5f5;fontColor=#333333;strokeColor=#666666;" parent="1" vertex="1">
          <mxGeometry x="-270" y="1027" width="80" height="40" as="geometry" />
        </mxCell>
        <mxCell id="CaH6MLlr3w6qB_pdMVhU-196" value="address" style="rounded=0;whiteSpace=wrap;html=1;fillColor=#f5f5f5;fontColor=#333333;strokeColor=#666666;" parent="1" vertex="1">
          <mxGeometry x="-190" y="1027" width="80" height="40" as="geometry" />
        </mxCell>
        <mxCell id="CaH6MLlr3w6qB_pdMVhU-197" value="&lt;u&gt;nominee_id&lt;/u&gt;" style="rounded=0;whiteSpace=wrap;html=1;fillColor=#f5f5f5;fontColor=#333333;strokeColor=#666666;" parent="1" vertex="1">
          <mxGeometry x="-798" y="1027" width="80" height="40" as="geometry" />
        </mxCell>
        <mxCell id="CaH6MLlr3w6qB_pdMVhU-198" value="ADULT" style="text;html=1;align=center;verticalAlign=middle;resizable=0;points=[];autosize=1;strokeColor=none;fillColor=none;" parent="1" vertex="1">
          <mxGeometry x="-800" y="1005" width="60" height="30" as="geometry" />
        </mxCell>
        <mxCell id="CaH6MLlr3w6qB_pdMVhU-199" value="MINOR" style="text;html=1;align=center;verticalAlign=middle;resizable=0;points=[];autosize=1;strokeColor=none;fillColor=none;" parent="1" vertex="1">
          <mxGeometry x="-452" y="1004" width="60" height="30" as="geometry" />
        </mxCell>
        <mxCell id="CaH6MLlr3w6qB_pdMVhU-206" value="" style="endArrow=classic;html=1;exitX=0;exitY=0.25;exitDx=0;exitDy=0;entryX=0.5;entryY=1;entryDx=0;entryDy=0;curved=1;" parent="1" source="CaH6MLlr3w6qB_pdMVhU-188" target="CaH6MLlr3w6qB_pdMVhU-181" edge="1">
          <mxGeometry width="50" height="50" relative="1" as="geometry">
            <mxPoint x="-860" y="1142" as="sourcePoint" />
            <mxPoint x="-340" y="905" as="targetPoint" />
            <Array as="points">
              <mxPoint x="-750" y="1010" />
            </Array>
          </mxGeometry>
        </mxCell>
        <mxCell id="CaH6MLlr3w6qB_pdMVhU-207" value="" style="endArrow=classic;html=1;exitX=0;exitY=0.5;exitDx=0;exitDy=0;entryX=0.25;entryY=1;entryDx=0;entryDy=0;curved=1;" parent="1" source="CaH6MLlr3w6qB_pdMVhU-197" target="CaH6MLlr3w6qB_pdMVhU-181" edge="1">
          <mxGeometry width="50" height="50" relative="1" as="geometry">
            <mxPoint x="-610" y="1047" as="sourcePoint" />
            <mxPoint x="-728" y="983" as="targetPoint" />
            <Array as="points">
              <mxPoint x="-820" y="1047" />
              <mxPoint x="-820" y="1010" />
            </Array>
          </mxGeometry>
        </mxCell>
        <mxCell id="CaH6MLlr3w6qB_pdMVhU-208" value="passport_num" style="rounded=0;whiteSpace=wrap;html=1;fillColor=#f5f5f5;fontColor=#333333;strokeColor=#666666;" parent="1" vertex="1">
          <mxGeometry x="-30" y="932" width="100" height="40" as="geometry" />
        </mxCell>
        <mxCell id="CaH6MLlr3w6qB_pdMVhU-209" value="" style="endArrow=none;dashed=1;html=1;rounded=0;" parent="1" edge="1">
          <mxGeometry width="50" height="50" relative="1" as="geometry">
            <mxPoint x="-21" y="960" as="sourcePoint" />
            <mxPoint x="69" y="960" as="targetPoint" />
          </mxGeometry>
        </mxCell>
        <mxCell id="CaH6MLlr3w6qB_pdMVhU-210" value="" style="endArrow=classic;html=1;entryX=0;entryY=0.25;entryDx=0;entryDy=0;curved=1;exitX=0.795;exitY=-0.005;exitDx=0;exitDy=0;exitPerimeter=0;" parent="1" source="CaH6MLlr3w6qB_pdMVhU-130" target="CaH6MLlr3w6qB_pdMVhU-168" edge="1">
          <mxGeometry width="50" height="50" relative="1" as="geometry">
            <mxPoint x="-180" y="690" as="sourcePoint" />
            <mxPoint x="220" y="600" as="targetPoint" />
            <Array as="points">
              <mxPoint x="-140" y="660" />
              <mxPoint x="-40" y="650" />
              <mxPoint x="100" y="650" />
            </Array>
          </mxGeometry>
        </mxCell>
        <mxCell id="CaH6MLlr3w6qB_pdMVhU-211" value="" style="endArrow=classic;html=1;exitX=0.5;exitY=0;exitDx=0;exitDy=0;entryX=0.5;entryY=1;entryDx=0;entryDy=0;curved=1;" parent="1" source="CaH6MLlr3w6qB_pdMVhU-151" target="CaH6MLlr3w6qB_pdMVhU-168" edge="1">
          <mxGeometry width="50" height="50" relative="1" as="geometry">
            <mxPoint x="-140" y="860" as="sourcePoint" />
            <mxPoint x="-80" y="770" as="targetPoint" />
            <Array as="points">
              <mxPoint x="-310" y="800" />
              <mxPoint x="120" y="770" />
              <mxPoint x="220" y="760" />
            </Array>
          </mxGeometry>
        </mxCell>
        <mxCell id="CaH6MLlr3w6qB_pdMVhU-212" value="" style="endArrow=classic;html=1;entryX=0.25;entryY=1;entryDx=0;entryDy=0;curved=1;" parent="1" source="CaH6MLlr3w6qB_pdMVhU-208" target="CaH6MLlr3w6qB_pdMVhU-168" edge="1">
          <mxGeometry width="50" height="50" relative="1" as="geometry">
            <mxPoint x="-140" y="860" as="sourcePoint" />
            <mxPoint x="-90" y="810" as="targetPoint" />
            <Array as="points">
              <mxPoint x="100" y="900" />
              <mxPoint x="-70" y="820" />
            </Array>
          </mxGeometry>
        </mxCell>
        <mxCell id="CaH6MLlr3w6qB_pdMVhU-213" value="" style="endArrow=classic;html=1;exitX=0.394;exitY=1.013;exitDx=0;exitDy=0;exitPerimeter=0;entryX=0.007;entryY=1.051;entryDx=0;entryDy=0;entryPerimeter=0;curved=1;" parent="1" source="CaH6MLlr3w6qB_pdMVhU-158" target="oYCZfajTv22bk5wUYPz_-8" edge="1">
          <mxGeometry width="50" height="50" relative="1" as="geometry">
            <mxPoint x="-140" y="860" as="sourcePoint" />
            <mxPoint x="-820" y="110" as="targetPoint" />
            <Array as="points">
              <mxPoint x="-90" y="910" />
              <mxPoint x="-800" y="910" />
              <mxPoint x="-830" y="820" />
              <mxPoint x="-830" y="490" />
              <mxPoint x="-840" y="280" />
            </Array>
          </mxGeometry>
        </mxCell>
        <mxCell id="CaH6MLlr3w6qB_pdMVhU-214" value="" style="endArrow=classic;html=1;exitX=0.25;exitY=1;exitDx=0;exitDy=0;entryX=0.5;entryY=1;entryDx=0;entryDy=0;curved=1;" parent="1" source="CaH6MLlr3w6qB_pdMVhU-173" target="CaH6MLlr3w6qB_pdMVhU-145" edge="1">
          <mxGeometry width="50" height="50" relative="1" as="geometry">
            <mxPoint x="-50" y="700" as="sourcePoint" />
            <mxPoint x="-70" y="920" as="targetPoint" />
            <Array as="points">
              <mxPoint x="540" y="780" />
              <mxPoint x="160" y="900" />
              <mxPoint x="-230" y="920" />
              <mxPoint x="-690" y="920" />
            </Array>
          </mxGeometry>
        </mxCell>
        <mxCell id="CaH6MLlr3w6qB_pdMVhU-215" value="" style="endArrow=classic;html=1;exitX=0.25;exitY=1;exitDx=0;exitDy=0;entryX=0.037;entryY=1.07;entryDx=0;entryDy=0;entryPerimeter=0;curved=1;" parent="1" source="CaH6MLlr3w6qB_pdMVhU-175" target="CaH6MLlr3w6qB_pdMVhU-130" edge="1">
          <mxGeometry width="50" height="50" relative="1" as="geometry">
            <mxPoint x="-50" y="700" as="sourcePoint" />
            <mxPoint x="-779" y="740" as="targetPoint" />
            <Array as="points">
              <mxPoint x="600" y="760" />
              <mxPoint x="480" y="770" />
              <mxPoint x="-210" y="760" />
              <mxPoint x="-730" y="770" />
            </Array>
          </mxGeometry>
        </mxCell>
        <mxCell id="CaH6MLlr3w6qB_pdMVhU-216" value="" style="endArrow=classic;html=1;entryX=0.778;entryY=0.95;entryDx=0;entryDy=0;entryPerimeter=0;exitX=0.5;exitY=1;exitDx=0;exitDy=0;curved=1;" parent="1" source="CaH6MLlr3w6qB_pdMVhU-178" target="CaH6MLlr3w6qB_pdMVhU-181" edge="1">
          <mxGeometry width="50" height="50" relative="1" as="geometry">
            <mxPoint x="440" y="920" as="sourcePoint" />
            <mxPoint x="-100" y="670" as="targetPoint" />
            <Array as="points">
              <mxPoint x="470" y="900" />
              <mxPoint x="270" y="970" />
              <mxPoint x="-20" y="1010" />
              <mxPoint x="-690" y="1000" />
            </Array>
          </mxGeometry>
        </mxCell>
        <mxCell id="Vrotnr1dJ_BqeCJl2SHQ-1" value="" style="endArrow=classic;html=1;exitX=0.883;exitY=0.025;exitDx=0;exitDy=0;exitPerimeter=0;entryX=0;entryY=1.1;entryDx=0;entryDy=0;entryPerimeter=0;curved=1;" parent="1" source="CaH6MLlr3w6qB_pdMVhU-119" target="oYCZfajTv22bk5wUYPz_-8" edge="1">
          <mxGeometry width="50" height="50" relative="1" as="geometry">
            <mxPoint x="-90" y="529" as="sourcePoint" />
            <mxPoint x="-820" y="120" as="targetPoint" />
            <Array as="points">
              <mxPoint x="-800" y="560" />
              <mxPoint x="-820" y="530" />
              <mxPoint x="-840" y="160" />
            </Array>
          </mxGeometry>
        </mxCell>
        <mxCell id="nN9NwO-dAASpCdIHJoba-2" value="mobile" style="rounded=0;whiteSpace=wrap;html=1;fillColor=#f5f5f5;fontColor=#333333;strokeColor=#666666;" parent="1" vertex="1">
          <mxGeometry x="-210" y="480" width="70" height="40" as="geometry" />
        </mxCell>
        <mxCell id="nN9NwO-dAASpCdIHJoba-4" value="head_id" style="rounded=0;whiteSpace=wrap;html=1;fillColor=#f5f5f5;fontColor=#333333;strokeColor=#666666;" parent="1" vertex="1">
          <mxGeometry x="-140" y="385" width="70" height="40" as="geometry" />
        </mxCell>
        <mxCell id="S8EFkPYiH6CeawuP4wX_-1" value="bo_id" style="rounded=0;whiteSpace=wrap;html=1;fillColor=#f5f5f5;fontColor=#333333;strokeColor=#666666;" parent="1" vertex="1">
          <mxGeometry x="70" y="932" width="70" height="40" as="geometry" />
        </mxCell>
        <mxCell id="S8EFkPYiH6CeawuP4wX_-2" value="" style="endArrow=none;dashed=1;html=1;rounded=0;fillColor=#f5f5f5;strokeColor=#666666;" parent="1" edge="1">
          <mxGeometry width="50" height="50" relative="1" as="geometry">
            <mxPoint x="82" y="960" as="sourcePoint" />
            <mxPoint x="132" y="960" as="targetPoint" />
          </mxGeometry>
        </mxCell>
        <mxCell id="S8EFkPYiH6CeawuP4wX_-3" value="" style="endArrow=classic;html=1;exitX=0.386;exitY=0.075;exitDx=0;exitDy=0;exitPerimeter=0;entryX=0.013;entryY=1.125;entryDx=0;entryDy=0;entryPerimeter=0;curved=1;" parent="1" source="S8EFkPYiH6CeawuP4wX_-1" target="CaH6MLlr3w6qB_pdMVhU-130" edge="1">
          <mxGeometry width="50" height="50" relative="1" as="geometry">
            <mxPoint x="-150" y="1000" as="sourcePoint" />
            <mxPoint x="-730" y="780" as="targetPoint" />
            <Array as="points">
              <mxPoint x="-80" y="890" />
              <mxPoint x="-50" y="790" />
              <mxPoint x="-780" y="770" />
            </Array>
          </mxGeometry>
        </mxCell>
        <mxCell id="LuBsZOgc3r4doJ9d_pZa-2" value="mobile" style="rounded=0;whiteSpace=wrap;html=1;fillColor=#f5f5f5;fontColor=#333333;strokeColor=#666666;" parent="1" vertex="1">
          <mxGeometry x="-720" y="1027" width="70" height="40" as="geometry" />
        </mxCell>
        <mxCell id="LuBsZOgc3r4doJ9d_pZa-3" value="email" style="rounded=0;whiteSpace=wrap;html=1;fillColor=#f5f5f5;fontColor=#333333;strokeColor=#666666;" parent="1" vertex="1">
          <mxGeometry x="-650" y="1027" width="70" height="40" as="geometry" />
        </mxCell>
        <mxCell id="3AwoEfTx26ynnq3Ft3Jd-16" value="nid" style="rounded=0;whiteSpace=wrap;html=1;fillColor=#f5f5f5;fontColor=#333333;strokeColor=#666666;" parent="1" vertex="1">
          <mxGeometry x="390" y="90" width="30" height="40" as="geometry" />
        </mxCell>
        <mxCell id="3AwoEfTx26ynnq3Ft3Jd-17" value="photo" style="rounded=0;whiteSpace=wrap;html=1;fillColor=#f5f5f5;fontColor=#333333;strokeColor=#666666;" parent="1" vertex="1">
          <mxGeometry x="420" y="90" width="40" height="40" as="geometry" />
        </mxCell>
        <mxCell id="3AwoEfTx26ynnq3Ft3Jd-18" value="signature" style="rounded=0;whiteSpace=wrap;html=1;fillColor=#f5f5f5;fontColor=#333333;strokeColor=#666666;" parent="1" vertex="1">
          <mxGeometry x="460" y="90" width="60" height="40" as="geometry" />
        </mxCell>
        <mxCell id="3AwoEfTx26ynnq3Ft3Jd-19" value="operation_type" style="rounded=0;whiteSpace=wrap;html=1;fillColor=#f5f5f5;fontColor=#333333;strokeColor=#666666;" parent="1" vertex="1">
          <mxGeometry x="520" y="90" width="90" height="40" as="geometry" />
        </mxCell>
        <mxCell id="3AwoEfTx26ynnq3Ft3Jd-20" value="bo_id" style="rounded=0;whiteSpace=wrap;html=1;fillColor=#f5f5f5;fontColor=#333333;strokeColor=#666666;" parent="1" vertex="1">
          <mxGeometry x="610" y="90" width="40" height="40" as="geometry" />
        </mxCell>
        <mxCell id="3AwoEfTx26ynnq3Ft3Jd-21" value="bank_ac_number" style="rounded=0;whiteSpace=wrap;html=1;fillColor=#f5f5f5;fontColor=#333333;strokeColor=#666666;" parent="1" vertex="1">
          <mxGeometry x="650" y="90" width="100" height="40" as="geometry" />
        </mxCell>
        <mxCell id="3AwoEfTx26ynnq3Ft3Jd-22" value="manager_id" style="rounded=0;whiteSpace=wrap;html=1;fillColor=#f5f5f5;fontColor=#333333;strokeColor=#666666;" parent="1" vertex="1">
          <mxGeometry x="750" y="90" width="70" height="40" as="geometry" />
        </mxCell>
        <mxCell id="3AwoEfTx26ynnq3Ft3Jd-23" value="" style="endArrow=none;dashed=1;html=1;rounded=0;" parent="1" edge="1">
          <mxGeometry width="50" height="50" relative="1" as="geometry">
            <mxPoint x="617" y="118.43" as="sourcePoint" />
            <mxPoint x="647" y="118.43" as="targetPoint" />
          </mxGeometry>
        </mxCell>
        <mxCell id="3AwoEfTx26ynnq3Ft3Jd-24" value="" style="endArrow=none;dashed=1;html=1;rounded=0;" parent="1" edge="1">
          <mxGeometry width="50" height="50" relative="1" as="geometry">
            <mxPoint x="656" y="118.43" as="sourcePoint" />
            <mxPoint x="746" y="118" as="targetPoint" />
          </mxGeometry>
        </mxCell>
        <mxCell id="3AwoEfTx26ynnq3Ft3Jd-26" value="" style="endArrow=none;dashed=1;html=1;rounded=0;" parent="1" edge="1">
          <mxGeometry width="50" height="50" relative="1" as="geometry">
            <mxPoint x="757" y="118" as="sourcePoint" />
            <mxPoint x="817" y="118" as="targetPoint" />
          </mxGeometry>
        </mxCell>
        <mxCell id="d_6KVTgfYh1ycI_uELrd-3" value="bo_status" style="rounded=0;whiteSpace=wrap;html=1;fillColor=#f5f5f5;fontColor=#333333;strokeColor=#666666;" parent="1" vertex="1">
          <mxGeometry x="-30" y="695" width="70" height="40" as="geometry" />
        </mxCell>
        <mxCell id="oNfFS7v5FnrMQ6p--zQW-1" value="nid" style="rounded=0;whiteSpace=wrap;html=1;fillColor=#f5f5f5;fontColor=#333333;strokeColor=#666666;" parent="1" vertex="1">
          <mxGeometry x="-110" y="1027" width="50" height="40" as="geometry" />
        </mxCell>
        <mxCell id="oNfFS7v5FnrMQ6p--zQW-2" value="g_email" style="rounded=0;whiteSpace=wrap;html=1;fillColor=#f5f5f5;fontColor=#333333;strokeColor=#666666;" parent="1" vertex="1">
          <mxGeometry y="1027" width="60" height="40" as="geometry" />
        </mxCell>
        <mxCell id="oNfFS7v5FnrMQ6p--zQW-6" value="g_mobile" style="rounded=0;whiteSpace=wrap;html=1;fillColor=#f5f5f5;fontColor=#333333;strokeColor=#666666;" parent="1" vertex="1">
          <mxGeometry x="-60" y="1027" width="60" height="40" as="geometry" />
        </mxCell>
        <mxCell id="oNfFS7v5FnrMQ6p--zQW-7" value="minor_maturity_date" style="rounded=0;whiteSpace=wrap;html=1;fillColor=#f5f5f5;fontColor=#333333;strokeColor=#666666;" parent="1" vertex="1">
          <mxGeometry x="60" y="1027" width="130" height="40" as="geometry" />
        </mxCell>
        <mxCell id="btsgzgUmiJB1oN0Wyaej-1" value="photo" style="rounded=0;whiteSpace=wrap;html=1;fillColor=#f5f5f5;fontColor=#333333;strokeColor=#666666;" vertex="1" parent="1">
          <mxGeometry x="-250" y="832" width="60" height="40" as="geometry" />
        </mxCell>
        <mxCell id="btsgzgUmiJB1oN0Wyaej-2" value="signature" style="rounded=0;whiteSpace=wrap;html=1;fillColor=#f5f5f5;fontColor=#333333;strokeColor=#666666;" vertex="1" parent="1">
          <mxGeometry x="-190" y="832" width="70" height="40" as="geometry" />
        </mxCell>
        <mxCell id="btsgzgUmiJB1oN0Wyaej-3" value="date" style="rounded=0;whiteSpace=wrap;html=1;fillColor=#f5f5f5;fontColor=#333333;strokeColor=#666666;" vertex="1" parent="1">
          <mxGeometry x="-120" y="832" width="40" height="40" as="geometry" />
        </mxCell>
      </root>
    </mxGraphModel>
  </diagram>
</mxfile>
